<svg width="492" height="46" viewBox="0 0 492 46" fill="none" xmlns="http://www.w3.org/2000/svg">
<path d="M16.8203 18.2109C18.1484 19.2786 19.5156 20.2682 20.9219 21.1797C22.3542 22.0911 24.0469 23.0286 26 23.9922L23.7344 25.9844C22.3542 24.7604 21.0651 23.6146 19.8672 22.5469C18.6693 21.4792 17.3411 20.3333 15.8828 19.1094C14.0078 21.0365 12.0286 22.7031 9.94531 24.1094C7.86198 25.5156 5.88281 26.6224 4.00781 27.4297L3.22656 26.6094C4.97135 25.75 6.61198 24.7474 8.14844 23.6016C9.71094 22.4297 11.1562 21.1667 12.4844 19.8125C13.8125 18.4323 14.9974 16.974 16.0391 15.4375C17.1068 13.901 18.0182 12.3125 18.7734 10.6719C18.3828 10.6719 17.901 10.6849 17.3281 10.7109C16.7552 10.737 16.1562 10.763 15.5312 10.7891C14.9062 10.8151 14.2943 10.8411 13.6953 10.8672C13.1224 10.8932 12.6536 10.9062 12.2891 10.9062C12.0026 10.9062 11.638 10.9323 11.1953 10.9844C10.7526 11.0104 10.2708 11.0495 9.75 11.1016C9.25521 11.1536 8.7474 11.2188 8.22656 11.2969C7.70573 11.349 7.22396 11.401 6.78125 11.4531L5.25781 9.07031C5.9349 9.20052 6.78125 9.30469 7.79688 9.38281C8.8125 9.4349 9.75 9.46094 10.6094 9.46094C12.5625 9.51302 14.5286 9.46094 16.5078 9.30469C18.513 9.14844 20.2448 8.90104 21.7031 8.5625L22.6016 9.42188C21.9245 11.0365 21.0911 12.5729 20.1016 14.0312C19.138 15.4896 18.0443 16.8828 16.8203 18.2109ZM25.4141 3.875C26.7422 4.03125 28.0573 4.23958 29.3594 4.5C30.6875 4.73438 31.8594 4.95573 32.875 5.16406C32.7708 5.63281 32.6797 6.16667 32.6016 6.76562C32.5234 7.36458 32.4844 7.92448 32.4844 8.44531V24.6562C32.4844 25.2552 32.4714 25.8932 32.4453 26.5703C32.4193 27.2214 32.3672 27.8854 32.2891 28.5625C32.237 29.2135 32.1719 29.8385 32.0938 30.4375C32.0156 31.0365 31.9375 31.5573 31.8594 32L30.1406 32.2734C30.0885 31.9349 30.0495 31.5052 30.0234 30.9844C29.9974 30.4635 29.9714 29.9167 29.9453 29.3438C29.9193 28.7448 29.8932 28.1458 29.8672 27.5469C29.8672 26.9479 29.8672 26.4141 29.8672 25.9453V8.44531C29.8672 7.5599 29.4635 6.85677 28.6562 6.33594C27.875 5.78906 26.651 5.32031 24.9844 4.92969L25.4141 3.875ZM34.9062 39.8906C33.2656 39.8646 31.625 39.8516 29.9844 39.8516C28.3698 39.8516 26.7812 39.8646 25.2188 39.8906C23.6823 39.9167 22.2109 39.9557 20.8047 40.0078C19.3984 40.0599 18.1094 40.125 16.9375 40.2031C16.2083 40.2552 15.6875 40.099 15.375 39.7344C15.0625 39.3958 14.9062 38.9661 14.9062 38.4453V33.6016C14.9062 32.9766 14.8672 32.4818 14.7891 32.1172C14.737 31.7266 14.5938 31.4141 14.3594 31.1797C14.125 30.9193 13.7734 30.7109 13.3047 30.5547C12.862 30.3984 12.263 30.2161 11.5078 30.0078L11.9375 28.9922C12.3281 29.0443 12.7708 29.0964 13.2656 29.1484C13.7604 29.2005 14.2682 29.2656 14.7891 29.3438C15.3359 29.3958 15.8568 29.4609 16.3516 29.5391C16.8724 29.5911 17.3281 29.6562 17.7188 29.7344C17.6667 30.0469 17.6146 30.4896 17.5625 31.0625C17.5365 31.6094 17.5234 32.1172 17.5234 32.5859V37.1953C17.5234 37.7682 17.6536 38.1328 17.9141 38.2891C18.1745 38.4714 18.6823 38.5755 19.4375 38.6016C20.4531 38.6276 21.638 38.6146 22.9922 38.5625C24.3464 38.5104 25.7396 38.4323 27.1719 38.3281C28.6302 38.224 30.0625 38.0938 31.4688 37.9375C32.901 37.8073 34.1901 37.651 35.3359 37.4688L34.9062 39.8906ZM57.9922 23.3281C56.3516 23.276 54.5677 23.2891 52.6406 23.3672C50.7396 23.4193 48.8516 23.4844 46.9766 23.5625C46.9245 23.8229 46.8854 24.0703 46.8594 24.3047C46.8333 24.513 46.7943 24.7083 46.7422 24.8906L45.1406 25.125C45.0625 24.6042 44.9974 24.0182 44.9453 23.3672C44.8932 22.6901 44.8672 22 44.8672 21.2969V12.4688C44.8672 11.5833 44.6589 10.9323 44.2422 10.5156C43.8255 10.099 42.9792 9.73438 41.7031 9.42188L42.0938 8.48438C42.9792 8.5625 43.8906 8.66667 44.8281 8.79688C45.7656 8.90104 46.7552 9.05729 47.7969 9.26562C47.6667 9.76042 47.5625 10.2812 47.4844 10.8281C47.4062 11.349 47.3672 11.8568 47.3672 12.3516V14.0703C49.0599 14.0443 50.7396 14.0052 52.4062 13.9531C54.0729 13.875 55.8958 13.7318 57.875 13.5234V10.9453C57.875 10.5026 57.8099 10.125 57.6797 9.8125C57.5755 9.5 57.3802 9.23958 57.0938 9.03125C56.8333 8.79688 56.4688 8.58854 56 8.40625C55.5573 8.22396 54.9844 8.05469 54.2812 7.89844L54.7109 6.88281C55.8047 7.01302 56.8333 7.14323 57.7969 7.27344C58.7865 7.3776 59.7891 7.53385 60.8047 7.74219C60.7005 8.23698 60.6094 8.75781 60.5312 9.30469C60.4531 9.82552 60.4141 10.3333 60.4141 10.8281V14.2656C60.9609 14.3438 61.625 14.4219 62.4062 14.5C63.2135 14.5521 63.9948 14.5651 64.75 14.5391C65.3229 14.487 65.8958 14.4609 66.4688 14.4609C67.0417 14.4609 67.5755 14.4609 68.0703 14.4609V8.44531C68.0703 7.5599 67.6667 6.85677 66.8594 6.33594C66.0781 5.78906 64.8542 5.32031 63.1875 4.92969L63.6172 3.875C64.9453 4.03125 66.2604 4.23958 67.5625 4.5C68.8906 4.73438 70.0755 4.95573 71.1172 5.16406C70.987 5.63281 70.8828 6.16667 70.8047 6.76562C70.7266 7.36458 70.6875 7.92448 70.6875 8.44531V19.3047C70.6875 19.7734 70.6615 20.3203 70.6094 20.9453C70.5833 21.5443 70.5312 22.1562 70.4531 22.7812C70.401 23.3802 70.3359 23.9531 70.2578 24.5C70.2057 25.0208 70.1406 25.4505 70.0625 25.7891L68.3438 26.0234C68.2656 25.4766 68.2005 24.7604 68.1484 23.875C68.0964 22.9896 68.0703 22.1823 68.0703 21.4531V15.7891C66.6641 15.8411 65.4271 15.9323 64.3594 16.0625C63.3177 16.1667 62.3021 16.3229 61.3125 16.5312L60.4141 14.6953V19.0312C60.4141 19.5 60.388 19.9948 60.3359 20.5156C60.3099 21.0104 60.2578 21.5052 60.1797 22C60.1276 22.4688 60.0625 22.9115 59.9844 23.3281C59.9323 23.7448 59.8672 24.1094 59.7891 24.4219L58.1484 24.6953C58.0964 24.487 58.0573 24.2656 58.0312 24.0312C58.0312 23.7969 58.0182 23.5625 57.9922 23.3281ZM57.875 20.75V15.3203C56.1562 15.2422 54.4375 15.2292 52.7188 15.2812C51.026 15.3333 49.2422 15.4245 47.3672 15.5547V19.5781C47.3672 19.9688 47.3411 20.3854 47.2891 20.8281C47.263 21.2448 47.224 21.6745 47.1719 22.1172C48.9167 22.0911 50.7005 22.0391 52.5234 21.9609C54.3464 21.8828 56.1302 21.7786 57.875 21.6484V20.75ZM69.3984 37.5078C69.6589 37.4557 69.8932 37.4167 70.1016 37.3906C70.3359 37.3906 70.5573 37.3776 70.7656 37.3516L70.2578 39.5391C69.2161 39.4609 68.0443 39.3958 66.7422 39.3438C65.4661 39.3177 64.151 39.3047 62.7969 39.3047C61.4427 39.3047 60.1016 39.3177 58.7734 39.3438C57.4453 39.3698 56.2083 39.4089 55.0625 39.4609C55.0104 40.0599 54.9323 40.5938 54.8281 41.0625L53.3047 41.3359C53.1745 40.8411 53.0703 40.2552 52.9922 39.5781C52.9401 38.901 52.888 38.224 52.8359 37.5469L52.3281 31.4141C52.276 30.9193 52.2109 30.5156 52.1328 30.2031C52.0807 29.8906 51.9635 29.6302 51.7812 29.4219C51.599 29.2135 51.3385 29.0443 51 28.9141C50.6615 28.7839 50.2188 28.6406 49.6719 28.4844L50.1016 27.4688C53.4609 27.8854 56.7943 28.0547 60.1016 27.9766C63.4089 27.8724 66.8464 27.6641 70.4141 27.3516C70.3099 28.0807 70.2057 28.888 70.1016 29.7734C69.9974 30.6589 69.8932 31.5573 69.7891 32.4688C69.7109 33.3802 69.6328 34.2786 69.5547 35.1641C69.5026 36.0234 69.4505 36.8047 69.3984 37.5078ZM67.3281 29.3438C66.4948 29.3177 65.5182 29.3047 64.3984 29.3047C63.3047 29.2786 62.1849 29.2786 61.0391 29.3047C59.8932 29.3307 58.7865 29.3698 57.7188 29.4219C56.651 29.474 55.7526 29.526 55.0234 29.5781L55.1797 36.8438V38.0547C57.1328 38.0547 59.1771 38.0156 61.3125 37.9375C63.4479 37.8854 65.4141 37.7943 67.2109 37.6641L67.3281 29.3438ZM97.1328 6.10156C98.2266 6.20573 99.2422 6.45312 100.18 6.84375C101.117 7.20833 101.911 7.67708 102.562 8.25C103.24 8.79688 103.76 9.44792 104.125 10.2031C104.516 10.9323 104.711 11.7135 104.711 12.5469C104.711 13.5104 104.49 14.3958 104.047 15.2031C103.604 15.9844 102.979 16.6745 102.172 17.2734C101.391 17.8464 100.453 18.3021 99.3594 18.6406C98.2917 18.9531 97.1328 19.1094 95.8828 19.1094C94.6328 19.1094 93.474 18.9531 92.4062 18.6406C91.3385 18.3021 90.401 17.8464 89.5938 17.2734C88.8125 16.6745 88.2005 15.9844 87.7578 15.2031C87.3151 14.3958 87.0938 13.5104 87.0938 12.5469C87.0938 11.6615 87.3021 10.8411 87.7188 10.0859C88.1354 9.30469 88.7083 8.6276 89.4375 8.05469C90.1667 7.45573 91.026 6.98698 92.0156 6.64844C93.0312 6.28385 94.138 6.07552 95.3359 6.02344C95.2839 5.73698 95.1276 5.5026 94.8672 5.32031C94.6328 5.11198 94.2161 4.91667 93.6172 4.73438L93.9688 4.03125C94.6198 4.16146 95.2318 4.27865 95.8047 4.38281C96.3776 4.46094 97.0026 4.5651 97.6797 4.69531C97.5755 4.92969 97.4714 5.16406 97.3672 5.39844C97.2891 5.60677 97.2109 5.84115 97.1328 6.10156ZM101.938 12.3906C101.938 11.6875 101.781 11.0234 101.469 10.3984C101.156 9.7474 100.727 9.1875 100.18 8.71875C99.6589 8.25 99.0339 7.8724 98.3047 7.58594C97.5755 7.29948 96.7812 7.15625 95.9219 7.15625C95.0625 7.15625 94.2682 7.29948 93.5391 7.58594C92.8099 7.8724 92.1719 8.25 91.625 8.71875C91.0781 9.1875 90.6484 9.7474 90.3359 10.3984C90.0234 11.0234 89.8672 11.6875 89.8672 12.3906C89.8672 13.1458 90.0234 13.8359 90.3359 14.4609C90.6484 15.0859 91.0781 15.6328 91.625 16.1016C92.1719 16.5443 92.8099 16.8958 93.5391 17.1562C94.2682 17.4167 95.0625 17.5469 95.9219 17.5469C96.7812 17.5469 97.5755 17.4167 98.3047 17.1562C99.0339 16.8958 99.6719 16.5443 100.219 16.1016C100.766 15.6328 101.182 15.0859 101.469 14.4609C101.781 13.8359 101.938 13.1458 101.938 12.3906ZM113.5 23.5234C112.458 23.4714 111.169 23.4323 109.633 23.4062C108.122 23.3802 106.482 23.3542 104.711 23.3281C103.982 23.3281 103.044 23.3411 101.898 23.3672C100.753 23.3672 99.5026 23.3802 98.1484 23.4062C96.8203 23.4323 95.4531 23.4714 94.0469 23.5234C92.6406 23.5495 91.2995 23.5885 90.0234 23.6406C88.7474 23.6927 87.6016 23.7448 86.5859 23.7969C85.5703 23.8229 84.8021 23.849 84.2812 23.875C83.2656 23.9271 82.25 23.9922 81.2344 24.0703C80.2448 24.1484 79.2682 24.2526 78.3047 24.3828L77.2891 21.6875C78.513 21.8177 79.6719 21.9219 80.7656 22C81.8594 22.0521 83.0182 22.1042 84.2422 22.1562C84.8932 22.1823 85.7526 22.1953 86.8203 22.1953C87.888 22.1953 89.0469 22.1953 90.2969 22.1953C91.5729 22.1693 92.888 22.1432 94.2422 22.1172C95.6224 22.0651 96.9375 22.026 98.1875 22C99.4635 21.974 100.622 21.9479 101.664 21.9219C102.732 21.8698 103.591 21.8307 104.242 21.8047C106.039 21.7266 107.745 21.6224 109.359 21.4922C110.974 21.3359 112.484 21.1536 113.891 20.9453L113.5 23.5234ZM103.5 28.6406C102.849 28.6146 101.977 28.6016 100.883 28.6016C99.8151 28.6016 98.6953 28.6146 97.5234 28.6406C96.3516 28.6667 95.2188 28.7057 94.125 28.7578C93.0312 28.7839 92.1458 28.8229 91.4688 28.875C91.1823 28.901 90.8177 28.9271 90.375 28.9531C89.9583 28.9792 89.5026 29.0182 89.0078 29.0703C88.513 29.0964 88.0052 29.1484 87.4844 29.2266C86.9635 29.2786 86.4557 29.3438 85.9609 29.4219L84.5938 27C84.9062 27.0521 85.2708 27.1172 85.6875 27.1953C86.1042 27.2474 86.5469 27.2995 87.0156 27.3516C87.4844 27.4036 87.9531 27.4427 88.4219 27.4688C88.9167 27.4948 89.3724 27.5078 89.7891 27.5078C90.8047 27.5078 92.0156 27.5078 93.4219 27.5078C94.8281 27.5078 96.3125 27.4948 97.875 27.4688C99.4375 27.4167 100.987 27.3646 102.523 27.3125C104.086 27.2344 105.505 27.1432 106.781 27.0391C106.703 27.2734 106.625 27.638 106.547 28.1328C106.469 28.6276 106.378 29.1224 106.273 29.6172L105.727 32.5078C105.935 32.4818 106.117 32.4688 106.273 32.4688C106.43 32.4688 106.586 32.4557 106.742 32.4297L106.547 34.2656C105.036 34.1875 103.422 34.1484 101.703 34.1484C100.01 34.1484 98.3698 34.1745 96.7812 34.2266C95.1927 34.2526 93.7474 34.2917 92.4453 34.3438C91.1432 34.3958 90.1667 34.4349 89.5156 34.4609C89.4896 34.7214 89.4635 34.9948 89.4375 35.2812C89.4375 35.5677 89.4375 35.8151 89.4375 36.0234V37.7031C89.4375 38.1979 89.5286 38.5104 89.7109 38.6406C89.9193 38.7708 90.375 38.849 91.0781 38.875C92.0417 38.901 93.2786 38.901 94.7891 38.875C96.3255 38.849 97.9271 38.7839 99.5938 38.6797C101.26 38.6016 102.888 38.4974 104.477 38.3672C106.065 38.237 107.419 38.0807 108.539 37.8984L107.992 40.3203C106.534 40.2682 104.932 40.2292 103.188 40.2031C101.443 40.2031 99.6849 40.2161 97.9141 40.2422C96.1693 40.2682 94.4896 40.3073 92.875 40.3594C91.2604 40.4115 89.8542 40.4635 88.6562 40.5156C87.9792 40.5677 87.4844 40.3984 87.1719 40.0078C86.8854 39.6432 86.7422 39.1615 86.7422 38.5625V36.7266C86.7422 36.2318 86.7031 35.8281 86.625 35.5156C86.5729 35.1771 86.4427 34.9036 86.2344 34.6953C86.0521 34.4609 85.7786 34.2656 85.4141 34.1094C85.0495 33.9271 84.5547 33.7448 83.9297 33.5625L84.3594 32.6641C85.7656 32.8203 87.2891 32.9375 88.9297 33.0156C90.5964 33.0677 92.263 33.0938 93.9297 33.0938C95.6224 33.0677 97.276 33.0286 98.8906 32.9766C100.531 32.8984 102.029 32.8073 103.383 32.7031L103.5 28.6406ZM155.961 18.2109C154.242 18.263 152.523 18.3411 150.805 18.4453C149.086 18.5234 147.641 18.6667 146.469 18.875L145.414 16.6094C145.935 16.7135 146.625 16.7917 147.484 16.8438C148.344 16.8958 149.164 16.9089 149.945 16.8828C150.44 16.8828 150.974 16.8828 151.547 16.8828C152.146 16.8568 152.719 16.8307 153.266 16.8047C153.839 16.7786 154.359 16.7656 154.828 16.7656C155.297 16.7396 155.674 16.7005 155.961 16.6484V8.44531C155.961 7.5599 155.557 6.85677 154.75 6.33594C153.969 5.78906 152.745 5.32031 151.078 4.92969L151.508 3.875C152.836 4.03125 154.151 4.23958 155.453 4.5C156.781 4.73438 157.953 4.95573 158.969 5.16406C158.865 5.63281 158.773 6.16667 158.695 6.76562C158.617 7.36458 158.578 7.92448 158.578 8.44531V18.4453C158.578 18.9141 158.552 19.4609 158.5 20.0859C158.474 20.6849 158.422 21.2969 158.344 21.9219C158.292 22.5208 158.227 23.0938 158.148 23.6406C158.096 24.1615 158.031 24.5911 157.953 24.9297L156.234 25.1641C156.156 24.5911 156.091 23.862 156.039 22.9766C155.987 22.0911 155.961 21.2839 155.961 20.5547V18.2109ZM148.539 8.91406C147.914 10.8411 146.938 12.7682 145.609 14.6953C144.307 16.5964 142.81 18.4062 141.117 20.125C139.424 21.8177 137.602 23.3411 135.648 24.6953C133.695 26.0495 131.781 27.1172 129.906 27.8984L129.164 27.0781C130.831 26.1927 132.458 25.151 134.047 23.9531C135.635 22.7292 137.107 21.401 138.461 19.9688C139.815 18.5104 141.026 16.987 142.094 15.3984C143.188 13.7839 144.06 12.1432 144.711 10.4766C144.138 10.4766 143.5 10.4896 142.797 10.5156C142.12 10.5156 141.456 10.5286 140.805 10.5547C140.154 10.5807 139.555 10.6068 139.008 10.6328C138.487 10.6589 138.096 10.6849 137.836 10.7109C137.576 10.737 137.211 10.763 136.742 10.7891C136.299 10.8151 135.818 10.8542 135.297 10.9062C134.802 10.9583 134.294 11.0234 133.773 11.1016C133.279 11.1536 132.836 11.2318 132.445 11.3359L130.883 8.83594C131.143 8.88802 131.495 8.9401 131.938 8.99219C132.38 9.01823 132.862 9.05729 133.383 9.10938C133.904 9.13542 134.424 9.16146 134.945 9.1875C135.466 9.21354 135.948 9.22656 136.391 9.22656C137.484 9.22656 138.604 9.20052 139.75 9.14844C140.896 9.09635 141.964 9.03125 142.953 8.95312C143.969 8.875 144.88 8.78385 145.688 8.67969C146.495 8.54948 147.12 8.41927 147.562 8.28906L148.539 8.91406ZM157.562 37.5078C157.823 37.4557 158.057 37.4167 158.266 37.3906C158.5 37.3906 158.721 37.3776 158.93 37.3516L158.422 39.5391C157.38 39.4609 156.195 39.3958 154.867 39.3438C153.539 39.3177 152.172 39.3047 150.766 39.3047C149.359 39.3047 147.966 39.3177 146.586 39.3438C145.206 39.3698 143.943 39.4089 142.797 39.4609C142.745 40.0599 142.667 40.5938 142.562 41.0625L141.039 41.3359C140.909 40.8151 140.805 40.2161 140.727 39.5391C140.648 38.888 140.583 38.224 140.531 37.5469L140.062 30.3984C140.036 29.9036 139.984 29.5 139.906 29.1875C139.828 28.875 139.698 28.6276 139.516 28.4453C139.333 28.237 139.073 28.0677 138.734 27.9375C138.396 27.7812 137.953 27.625 137.406 27.4688L137.836 26.4922C141.221 26.8828 144.633 27.0391 148.07 26.9609C151.508 26.8568 155.01 26.6615 158.578 26.375C158.474 27.1042 158.37 27.9635 158.266 28.9531C158.161 29.9167 158.057 30.9193 157.953 31.9609C157.875 32.9766 157.797 33.9792 157.719 34.9688C157.667 35.9323 157.615 36.7786 157.562 37.5078ZM155.492 28.3672C154.659 28.3411 153.656 28.3281 152.484 28.3281C151.339 28.3021 150.167 28.3021 148.969 28.3281C147.771 28.3542 146.612 28.3932 145.492 28.4453C144.398 28.4714 143.487 28.5104 142.758 28.5625L142.914 36.8438V38.0547C143.878 38.0547 144.893 38.0417 145.961 38.0156C147.055 38.0156 148.135 37.9896 149.203 37.9375C150.271 37.9115 151.326 37.8724 152.367 37.8203C153.435 37.7943 154.438 37.7422 155.375 37.6641L155.492 28.3672ZM193.539 22.1953C191.846 22.2474 190.206 22.3125 188.617 22.3906C187.055 22.4688 185.688 22.625 184.516 22.8594L183.461 20.5547C183.982 20.6589 184.672 20.737 185.531 20.7891C186.391 20.8411 187.211 20.8542 187.992 20.8281C188.461 20.8281 188.956 20.8281 189.477 20.8281C189.997 20.8021 190.505 20.7891 191 20.7891C191.521 20.763 192.003 20.737 192.445 20.7109C192.888 20.6849 193.253 20.6589 193.539 20.6328V8.44531C193.539 7.5599 193.135 6.85677 192.328 6.33594C191.547 5.78906 190.323 5.32031 188.656 4.92969L189.125 3.875C190.427 4.03125 191.742 4.23958 193.07 4.5C194.398 4.73438 195.57 4.95573 196.586 5.16406C196.482 5.63281 196.391 6.16667 196.312 6.76562C196.234 7.36458 196.195 7.92448 196.195 8.44531V30.3203C196.195 31.1276 196.169 32.0521 196.117 33.0938C196.091 34.1354 196.052 35.1771 196 36.2188C195.948 37.2604 195.883 38.25 195.805 39.1875C195.727 40.125 195.635 40.8932 195.531 41.4922L193.891 41.6875C193.839 41.2448 193.786 40.6849 193.734 40.0078C193.682 39.3568 193.643 38.6406 193.617 37.8594C193.591 37.1042 193.565 36.3229 193.539 35.5156C193.539 34.7083 193.539 33.9271 193.539 33.1719V22.1953ZM186.547 11.4141C185.792 13.6797 184.776 15.8802 183.5 18.0156C182.25 20.151 180.805 22.1562 179.164 24.0312C177.549 25.9062 175.805 27.599 173.93 29.1094C172.055 30.6198 170.128 31.8698 168.148 32.8594L167.289 32C169.164 30.8802 170.922 29.5781 172.562 28.0938C174.229 26.6094 175.727 25.0208 177.055 23.3281C178.409 21.6354 179.568 19.8906 180.531 18.0938C181.495 16.2708 182.237 14.487 182.758 12.7422C182.367 12.7422 181.833 12.7552 181.156 12.7812C180.505 12.8073 179.815 12.8333 179.086 12.8594C178.357 12.8854 177.667 12.9115 177.016 12.9375C176.365 12.9635 175.857 12.9766 175.492 12.9766C175.206 12.9766 174.828 13.0026 174.359 13.0547C173.917 13.0807 173.435 13.1198 172.914 13.1719C172.419 13.224 171.911 13.276 171.391 13.3281C170.87 13.3802 170.388 13.4453 169.945 13.5234L168.422 11.0625C168.76 11.1406 169.151 11.2057 169.594 11.2578C170.036 11.3099 170.492 11.362 170.961 11.4141C171.456 11.4401 171.938 11.4661 172.406 11.4922C172.901 11.4922 173.37 11.4922 173.812 11.4922C174.776 11.4922 175.792 11.4792 176.859 11.4531C177.953 11.4271 179.021 11.375 180.062 11.2969C181.13 11.2188 182.146 11.1276 183.109 11.0234C184.073 10.8932 184.919 10.737 185.648 10.5547L186.547 11.4141ZM232.602 30.3203C232.602 31.1276 232.576 32.0521 232.523 33.0938C232.497 34.1354 232.458 35.1771 232.406 36.2188C232.354 37.2604 232.289 38.25 232.211 39.1875C232.133 40.125 232.042 40.8932 231.938 41.4922L230.297 41.6875C230.245 41.2448 230.193 40.6849 230.141 40.0078C230.115 39.3568 230.076 38.6406 230.023 37.8594C229.997 37.1042 229.971 36.3229 229.945 35.5156C229.945 34.7083 229.945 33.9271 229.945 33.1719V8.44531C229.945 7.5599 229.555 6.85677 228.773 6.33594C227.992 5.78906 226.768 5.32031 225.102 4.92969L225.531 3.875C226.833 4.03125 228.148 4.23958 229.477 4.5C230.805 4.73438 231.977 4.95573 232.992 5.16406C232.888 5.63281 232.797 6.16667 232.719 6.76562C232.641 7.36458 232.602 7.92448 232.602 8.44531V21.4922C233.695 21.4401 234.945 21.349 236.352 21.2188C237.784 21.0625 239.203 20.8672 240.609 20.6328L240.258 23.1328C239.711 23.1068 239.099 23.0938 238.422 23.0938C237.745 23.0938 237.055 23.0938 236.352 23.0938C235.674 23.0938 235.01 23.1068 234.359 23.1328C233.708 23.1328 233.122 23.1328 232.602 23.1328V30.3203ZM226.234 14.9297C225.635 14.9297 224.906 14.9297 224.047 14.9297C223.188 14.9297 222.263 14.9427 221.273 14.9688C220.284 14.9948 219.268 15.0208 218.227 15.0469C217.185 15.0729 216.169 15.099 215.18 15.125C214.216 15.151 213.318 15.1771 212.484 15.2031C211.651 15.2292 210.961 15.2552 210.414 15.2812C210.102 15.3073 209.711 15.3333 209.242 15.3594C208.773 15.3854 208.292 15.4245 207.797 15.4766C207.302 15.5026 206.82 15.5417 206.352 15.5938C205.883 15.6458 205.492 15.6979 205.18 15.75L203.969 13.3281C204.724 13.4583 205.596 13.5625 206.586 13.6406C207.576 13.7188 208.448 13.7578 209.203 13.7578C209.802 13.7578 210.531 13.7448 211.391 13.7188C212.276 13.6927 213.227 13.6667 214.242 13.6406C215.284 13.6146 216.365 13.5755 217.484 13.5234C218.604 13.4714 219.711 13.4062 220.805 13.3281C221.898 13.25 222.94 13.1589 223.93 13.0547C224.945 12.9505 225.844 12.8203 226.625 12.6641L226.234 14.9297ZM223.773 24.8516C223.773 25.7891 223.565 26.6615 223.148 27.4688C222.732 28.276 222.146 28.9922 221.391 29.6172C220.661 30.2161 219.802 30.6979 218.812 31.0625C217.823 31.401 216.742 31.5703 215.57 31.5703C214.424 31.5703 213.344 31.388 212.328 31.0234C211.339 30.6589 210.466 30.1771 209.711 29.5781C208.982 28.9531 208.396 28.237 207.953 27.4297C207.536 26.6224 207.328 25.763 207.328 24.8516C207.328 23.8359 207.536 22.9115 207.953 22.0781C208.396 21.2448 208.982 20.5286 209.711 19.9297C210.466 19.3307 211.339 18.875 212.328 18.5625C213.344 18.224 214.424 18.0547 215.57 18.0547C216.794 18.0547 217.901 18.237 218.891 18.6016C219.906 18.9661 220.779 19.4609 221.508 20.0859C222.237 20.7109 222.797 21.4401 223.188 22.2734C223.578 23.0807 223.773 23.9401 223.773 24.8516ZM210.18 24.6562C210.18 25.3594 210.31 26.0365 210.57 26.6875C210.857 27.3125 211.247 27.8724 211.742 28.3672C212.237 28.862 212.81 29.2526 213.461 29.5391C214.138 29.8255 214.867 29.9688 215.648 29.9688C216.404 29.9688 217.107 29.8385 217.758 29.5781C218.409 29.2917 218.969 28.9141 219.438 28.4453C219.932 27.9505 220.31 27.3776 220.57 26.7266C220.857 26.0755 221 25.3854 221 24.6562C221 23.9792 220.87 23.3281 220.609 22.7031C220.349 22.0521 219.984 21.4922 219.516 21.0234C219.047 20.5286 218.487 20.138 217.836 19.8516C217.185 19.5391 216.456 19.3828 215.648 19.3828C214.867 19.3828 214.138 19.513 213.461 19.7734C212.81 20.0339 212.237 20.3984 211.742 20.8672C211.247 21.3359 210.857 21.8958 210.57 22.5469C210.31 23.1979 210.18 23.901 210.18 24.6562ZM220.414 9.69531C219.503 9.66927 218.539 9.68229 217.523 9.73438C216.508 9.76042 215.648 9.77344 214.945 9.77344C214.763 9.77344 214.516 9.78646 214.203 9.8125C213.917 9.8125 213.591 9.82552 213.227 9.85156C212.862 9.85156 212.484 9.8776 212.094 9.92969C211.703 9.95573 211.339 9.99479 211 10.0469L209.828 7.70312C210.453 7.85938 211.169 8.0026 211.977 8.13281C212.81 8.26302 213.63 8.32812 214.438 8.32812C215.089 8.32812 216.013 8.28906 217.211 8.21094C218.435 8.10677 219.659 7.96354 220.883 7.78125L220.414 9.69531ZM256.938 21.5312C258.292 22.7292 259.698 23.888 261.156 25.0078C262.615 26.1276 264.333 27.2865 266.312 28.4844L264.047 30.5156C263.344 29.7865 262.667 29.0964 262.016 28.4453C261.391 27.7943 260.753 27.1562 260.102 26.5312C259.477 25.9062 258.826 25.2812 258.148 24.6562C257.497 24.0052 256.807 23.3021 256.078 22.5469C254.307 24.5781 252.393 26.401 250.336 28.0156C248.279 29.6042 246.182 30.9453 244.047 32.0391L243.266 31.2188C245.115 30.125 246.885 28.862 248.578 27.4297C250.271 25.9714 251.82 24.4219 253.227 22.7812C254.633 21.1406 255.844 19.4349 256.859 17.6641C257.901 15.8672 258.695 14.0703 259.242 12.2734C258.852 12.2734 258.331 12.2865 257.68 12.3125C257.029 12.3385 256.339 12.3646 255.609 12.3906C254.906 12.4167 254.216 12.4427 253.539 12.4688C252.888 12.4948 252.38 12.5078 252.016 12.5078C251.729 12.5078 251.365 12.5339 250.922 12.5859C250.479 12.612 249.997 12.651 249.477 12.7031C248.982 12.7552 248.474 12.8203 247.953 12.8984C247.432 12.9505 246.951 13.0156 246.508 13.0938L244.984 10.6328C245.297 10.6849 245.674 10.737 246.117 10.7891C246.56 10.8411 247.016 10.8932 247.484 10.9453C247.979 10.9714 248.461 10.9974 248.93 11.0234C249.424 11.0234 249.893 11.0234 250.336 11.0234C251.299 11.0234 252.315 11.0104 253.383 10.9844C254.477 10.9583 255.544 10.9062 256.586 10.8281C257.654 10.75 258.656 10.6589 259.594 10.5547C260.557 10.4245 261.404 10.2812 262.133 10.125L263.07 10.9453C262.419 12.8724 261.573 14.7214 260.531 16.4922C259.49 18.237 258.292 19.9167 256.938 21.5312ZM265.648 3.875C266.977 4.03125 268.292 4.23958 269.594 4.5C270.922 4.73438 272.107 4.95573 273.148 5.16406C273.018 5.63281 272.914 6.16667 272.836 6.76562C272.758 7.36458 272.719 7.92448 272.719 8.44531V30.3203C272.719 31.1276 272.693 32.0521 272.641 33.0938C272.615 34.1354 272.576 35.1771 272.523 36.2188C272.471 37.2604 272.406 38.25 272.328 39.1875C272.25 40.125 272.159 40.8932 272.055 41.4922L270.414 41.6875C270.362 41.2448 270.31 40.6849 270.258 40.0078C270.232 39.3568 270.206 38.6406 270.18 37.8594C270.154 37.1042 270.128 36.3229 270.102 35.5156C270.102 34.7083 270.102 33.9271 270.102 33.1719V8.44531C270.102 7.5599 269.698 6.85677 268.891 6.33594C268.109 5.78906 266.885 5.32031 265.219 4.92969L265.648 3.875ZM319.047 15.3594C319.333 15.3073 319.607 15.2812 319.867 15.2812C320.128 15.2552 320.362 15.2292 320.57 15.2031L320.062 17.3516C318.995 17.2995 317.719 17.2604 316.234 17.2344C314.776 17.1823 313.24 17.1562 311.625 17.1562V22.9766C313.031 22.9245 314.32 22.8724 315.492 22.8203C316.664 22.7682 317.589 22.7292 318.266 22.7031C320.062 22.625 321.768 22.5208 323.383 22.3906C324.997 22.2604 326.508 22.0911 327.914 21.8828L327.523 24.4219C326.482 24.3698 325.193 24.3307 323.656 24.3047C322.146 24.2786 320.505 24.2526 318.734 24.2266C318.005 24.2266 317.068 24.2396 315.922 24.2656C314.776 24.2656 313.526 24.2917 312.172 24.3438C310.844 24.3698 309.477 24.4089 308.07 24.4609C306.664 24.487 305.323 24.526 304.047 24.5781C302.771 24.6042 301.625 24.6432 300.609 24.6953C299.594 24.7474 298.826 24.7865 298.305 24.8125C297.289 24.8646 296.273 24.9297 295.258 25.0078C294.268 25.0859 293.292 25.1901 292.328 25.3203L291.312 22.5859C292.536 22.7422 293.695 22.8594 294.789 22.9375C295.883 22.9896 297.042 23.0417 298.266 23.0938C298.786 23.1198 299.438 23.1328 300.219 23.1328C301.026 23.1328 301.898 23.1328 302.836 23.1328C303.799 23.1328 304.802 23.1198 305.844 23.0938C306.911 23.0677 307.979 23.0417 309.047 23.0156V17.1953C307.849 17.1953 306.69 17.2083 305.57 17.2344C304.477 17.2344 303.5 17.2604 302.641 17.3125C302.589 17.5208 302.549 17.7292 302.523 17.9375C302.497 18.1198 302.458 18.3151 302.406 18.5234L300.883 18.7578C300.753 18.237 300.648 17.6901 300.57 17.1172C300.518 16.5182 300.453 15.8802 300.375 15.2031L299.789 9.85156C299.711 9.33073 299.633 8.91406 299.555 8.60156C299.477 8.28906 299.346 8.04167 299.164 7.85938C298.982 7.65104 298.721 7.48177 298.383 7.35156C298.07 7.22135 297.641 7.07812 297.094 6.92188L297.523 5.90625C299.19 6.11458 300.987 6.25781 302.914 6.33594C304.841 6.38802 306.794 6.40104 308.773 6.375C310.779 6.34896 312.758 6.28385 314.711 6.17969C316.69 6.07552 318.565 5.94531 320.336 5.78906C320.232 6.51823 320.115 7.29948 319.984 8.13281C319.854 8.96615 319.724 9.79948 319.594 10.6328C319.49 11.4661 319.385 12.2865 319.281 13.0938C319.177 13.901 319.099 14.6562 319.047 15.3594ZM317.25 7.78125C316.417 7.75521 315.31 7.74219 313.93 7.74219C312.576 7.71615 311.169 7.71615 309.711 7.74219C308.253 7.76823 306.859 7.80729 305.531 7.85938C304.203 7.91146 303.174 7.96354 302.445 8.01562L302.797 14.5781C302.849 15.0208 302.836 15.4505 302.758 15.8672C303.773 15.8672 304.88 15.8672 306.078 15.8672C307.302 15.8411 308.539 15.8151 309.789 15.7891C311.039 15.763 312.276 15.724 313.5 15.6719C314.75 15.6198 315.909 15.5677 316.977 15.5156L317.25 7.78125ZM310.609 31.8828C311.547 32.5599 312.602 33.237 313.773 33.9141C314.945 34.5911 316.143 35.2422 317.367 35.8672C318.591 36.4922 319.802 37.0781 321 37.625C322.224 38.1719 323.357 38.6406 324.398 39.0312L322.133 41.2578C319.997 39.6953 317.927 38.263 315.922 36.9609C313.917 35.6589 311.859 34.3047 309.75 32.8984C307.953 34.8776 305.948 36.6094 303.734 38.0938C301.521 39.5781 299.307 40.776 297.094 41.6875L296.391 40.8281C299.438 39.2917 302.029 37.5859 304.164 35.7109C306.326 33.8099 307.953 31.8438 309.047 29.8125C309.229 29.474 309.32 29.2135 309.32 29.0312C309.32 28.849 309.164 28.6536 308.852 28.4453C308.617 28.2891 308.344 28.1198 308.031 27.9375C307.719 27.7292 307.237 27.4557 306.586 27.1172L307.25 26.2188C308.318 26.5052 309.32 26.7786 310.258 27.0391C311.221 27.2995 312.224 27.638 313.266 28.0547C312.901 28.7318 312.497 29.3958 312.055 30.0469C311.612 30.6719 311.13 31.2839 310.609 31.8828ZM354.438 18.1328C355.401 18.1328 356.273 18.1198 357.055 18.0938C357.862 18.0417 358.695 17.9635 359.555 17.8594V8.44531C359.555 7.58594 359.229 6.89583 358.578 6.375C357.953 5.82812 356.82 5.34635 355.18 4.92969L355.609 3.875C356.911 4.05729 358.135 4.26562 359.281 4.5C360.427 4.73438 361.508 4.95573 362.523 5.16406C362.419 5.63281 362.328 6.16667 362.25 6.76562C362.172 7.36458 362.133 7.92448 362.133 8.44531V18.5234C362.133 20.138 362.055 21.5964 361.898 22.8984C361.742 24.2005 361.56 25.5156 361.352 26.8438L359.75 27.0781C359.698 26.1927 359.646 25.2682 359.594 24.3047C359.568 23.3151 359.555 22.3646 359.555 21.4531V19.5391C358.565 19.5651 357.693 19.5911 356.938 19.6172C356.182 19.6432 355.349 19.7083 354.438 19.8125C354.411 21.2708 354.307 22.5078 354.125 23.5234C353.943 24.513 353.773 25.4245 353.617 26.2578L352.094 26.4531C352.042 26.0104 351.99 25.3724 351.938 24.5391C351.911 23.7057 351.898 22.8333 351.898 21.9219V10.125C351.898 9.26562 351.612 8.57552 351.039 8.05469C350.492 7.53385 349.464 7.07812 347.953 6.6875L348.383 5.63281C349.659 5.78906 350.792 5.95833 351.781 6.14062C352.797 6.32292 353.812 6.54427 354.828 6.80469C354.724 7.27344 354.633 7.82031 354.555 8.44531C354.477 9.04427 354.438 9.60417 354.438 10.125V18.1328ZM350.141 13.0938C349.281 13.0938 348.253 13.1068 347.055 13.1328C345.883 13.1328 344.672 13.1589 343.422 13.2109C342.198 13.237 341 13.276 339.828 13.3281C338.682 13.3802 337.706 13.4193 336.898 13.4453C336.586 13.4714 336.208 13.4974 335.766 13.5234C335.323 13.5495 334.867 13.5885 334.398 13.6406C333.93 13.6667 333.461 13.7057 332.992 13.7578C332.549 13.8099 332.172 13.862 331.859 13.9141L330.688 11.5312C331.391 11.6615 332.224 11.7656 333.188 11.8438C334.177 11.9219 335.036 11.9609 335.766 11.9609C336.625 11.9609 337.654 11.9479 338.852 11.9219C340.076 11.8698 341.352 11.8047 342.68 11.7266C344.034 11.6484 345.388 11.5443 346.742 11.4141C348.122 11.2578 349.385 11.0755 350.531 10.8672L350.141 13.0938ZM345.688 9.03125C344.802 9.00521 343.917 9.01823 343.031 9.07031C342.146 9.09635 341.352 9.10938 340.648 9.10938C340.284 9.10938 339.724 9.13542 338.969 9.1875C338.214 9.21354 337.51 9.27865 336.859 9.38281L335.688 7.11719C336.312 7.2474 337.016 7.3776 337.797 7.50781C338.604 7.63802 339.385 7.70312 340.141 7.70312C340.792 7.70312 341.664 7.66406 342.758 7.58594C343.852 7.48177 344.997 7.35156 346.195 7.19531L345.688 9.03125ZM348.812 20.9062C348.812 21.7135 348.617 22.4688 348.227 23.1719C347.862 23.875 347.354 24.5 346.703 25.0469C346.052 25.5677 345.284 25.9844 344.398 26.2969C343.513 26.5833 342.562 26.7266 341.547 26.7266C340.531 26.7266 339.581 26.5833 338.695 26.2969C337.81 25.9844 337.029 25.5677 336.352 25.0469C335.701 24.5 335.18 23.875 334.789 23.1719C334.424 22.4688 334.242 21.7135 334.242 20.9062C334.242 20.0469 334.424 19.2656 334.789 18.5625C335.18 17.8594 335.701 17.2474 336.352 16.7266C337.029 16.2057 337.81 15.8021 338.695 15.5156C339.581 15.2292 340.531 15.0859 341.547 15.0859C342.615 15.0859 343.591 15.2552 344.477 15.5938C345.388 15.9062 346.156 16.3359 346.781 16.8828C347.432 17.4036 347.927 18.0156 348.266 18.7188C348.63 19.4219 348.812 20.151 348.812 20.9062ZM336.977 20.75C336.977 21.375 337.081 21.9609 337.289 22.5078C337.523 23.0547 337.849 23.5365 338.266 23.9531C338.682 24.3438 339.164 24.6693 339.711 24.9297C340.258 25.1641 340.87 25.2812 341.547 25.2812C342.198 25.2812 342.797 25.1641 343.344 24.9297C343.917 24.6953 344.411 24.3828 344.828 23.9922C345.245 23.5755 345.57 23.0938 345.805 22.5469C346.039 21.974 346.156 21.375 346.156 20.75C346.156 20.151 346.039 19.5781 345.805 19.0312C345.596 18.4844 345.284 18.0156 344.867 17.625C344.477 17.2083 343.995 16.8828 343.422 16.6484C342.849 16.388 342.224 16.2578 341.547 16.2578C340.896 16.2578 340.284 16.375 339.711 16.6094C339.164 16.8438 338.682 17.1693 338.266 17.5859C337.875 17.9766 337.562 18.4453 337.328 18.9922C337.094 19.5391 336.977 20.125 336.977 20.75ZM345.531 33.3672C346.391 34.2266 347.263 35.0339 348.148 35.7891C349.06 36.5182 350.076 37.2214 351.195 37.8984C352.315 36.7005 353.292 35.4896 354.125 34.2656C354.958 33.0156 355.635 31.7005 356.156 30.3203C356.286 30.0078 356.339 29.7734 356.312 29.6172C356.312 29.4349 356.208 29.2396 356 29.0312C355.87 28.901 355.583 28.7057 355.141 28.4453C354.698 28.1849 354.294 27.9505 353.93 27.7422L354.477 27C354.815 27.0521 355.219 27.1302 355.688 27.2344C356.182 27.3385 356.69 27.4557 357.211 27.5859C357.732 27.6901 358.227 27.8203 358.695 27.9766C359.19 28.1068 359.62 28.224 359.984 28.3281C359.698 29.1615 359.333 29.9818 358.891 30.7891C358.474 31.5964 358.005 32.3906 357.484 33.1719C358.656 34.3438 359.932 35.4896 361.312 36.6094C362.719 37.7031 364.086 38.6406 365.414 39.4219L363.188 41.2578L356.664 34.3047C355.414 35.9193 354.047 37.3646 352.562 38.6406C351.078 39.9167 349.711 40.9323 348.461 41.6875L347.758 41.0625C348.07 40.8021 348.37 40.5417 348.656 40.2812C348.969 40.0208 349.268 39.7474 349.555 39.4609L344.672 34.4219C344.021 35.2031 343.318 35.9453 342.562 36.6484C341.807 37.3516 341.026 38.0026 340.219 38.6016C339.438 39.2005 338.643 39.7474 337.836 40.2422C337.029 40.763 336.26 41.2188 335.531 41.6094L334.828 40.9453C336.859 39.6693 338.682 38.1849 340.297 36.4922C341.911 34.7995 343.122 33.0156 343.93 31.1406C344.06 30.8542 344.112 30.6328 344.086 30.4766C344.086 30.2943 343.982 30.099 343.773 29.8906C343.643 29.7344 343.357 29.526 342.914 29.2656C342.471 29.0052 342.068 28.7969 341.703 28.6406L342.289 27.8594C342.628 27.9115 343.044 27.9896 343.539 28.0938C344.034 28.1979 344.542 28.3151 345.062 28.4453C345.583 28.5755 346.078 28.7057 346.547 28.8359C347.042 28.9661 347.471 29.0964 347.836 29.2266C347.289 30.6849 346.521 32.0651 345.531 33.3672ZM386.195 10.1641C388.279 11.2578 390.544 12.2604 392.992 13.1719C395.466 14.0833 398.057 14.9557 400.766 15.7891L398.422 18.0938C396.495 17 394.372 15.8672 392.055 14.6953C389.737 13.4974 387.471 12.2995 385.258 11.1016C383.305 13.0547 381.104 14.6953 378.656 16.0234C376.234 17.3255 373.747 18.4323 371.195 19.3438L370.375 18.4844C371.911 17.9375 373.396 17.2734 374.828 16.4922C376.286 15.7109 377.641 14.8516 378.891 13.9141C380.141 12.9766 381.26 11.987 382.25 10.9453C383.266 9.90365 384.112 8.83594 384.789 7.74219C384.997 7.42969 385.089 7.18229 385.062 7C385.062 6.79167 384.906 6.58333 384.594 6.375C384.359 6.19271 384.086 6.01042 383.773 5.82812C383.461 5.64583 382.966 5.38542 382.289 5.04688L382.992 4.10938C385.049 4.68229 387.133 5.38542 389.242 6.21875C388.305 7.67708 387.289 8.99219 386.195 10.1641ZM403.539 23.2109C402.497 23.1589 401.208 23.1198 399.672 23.0938C398.161 23.0677 396.521 23.0417 394.75 23.0156C394.021 23.0156 393.083 23.0286 391.938 23.0547C390.792 23.0547 389.542 23.0677 388.188 23.0938C386.859 23.1198 385.492 23.1589 384.086 23.2109C382.68 23.237 381.339 23.276 380.062 23.3281C378.786 23.3802 377.641 23.4323 376.625 23.4844C375.609 23.5104 374.841 23.5365 374.32 23.5625C373.305 23.6146 372.289 23.6797 371.273 23.7578C370.284 23.8359 369.307 23.9401 368.344 24.0703L367.328 21.375C368.552 21.5052 369.711 21.6094 370.805 21.6875C371.898 21.7396 373.057 21.7917 374.281 21.8438C374.932 21.8698 375.792 21.8828 376.859 21.8828C377.927 21.8828 379.086 21.8828 380.336 21.8828C381.612 21.8568 382.927 21.8307 384.281 21.8047C385.661 21.7526 386.977 21.7135 388.227 21.6875C389.503 21.6615 390.661 21.6354 391.703 21.6094C392.771 21.5573 393.63 21.5182 394.281 21.4922C396.078 21.4141 397.784 21.3099 399.398 21.1797C401.013 21.0234 402.523 20.8411 403.93 20.6328L403.539 23.2109ZM393.773 39.3047C391.69 39.2266 389.424 39.2266 386.977 39.3047C384.529 39.3828 382.068 39.487 379.594 39.6172C379.542 39.8776 379.49 40.125 379.438 40.3594C379.411 40.5938 379.372 40.8151 379.32 41.0234L377.719 41.2969C377.641 40.776 377.576 40.1771 377.523 39.5C377.471 38.849 377.445 38.1589 377.445 37.4297V30.9453C377.445 30.0599 377.237 29.4089 376.82 28.9922C376.404 28.5755 375.557 28.224 374.281 27.9375L374.672 26.9609C375.557 27.0391 376.469 27.1432 377.406 27.2734C378.344 27.3776 379.32 27.5339 380.336 27.7422C380.232 28.237 380.141 28.7578 380.062 29.3047C379.984 29.8255 379.945 30.3333 379.945 30.8281V31.6094C382.133 31.5833 384.372 31.5312 386.664 31.4531C388.956 31.375 391.286 31.2318 393.656 31.0234V29.7734C393.656 29.3307 393.604 28.9531 393.5 28.6406C393.396 28.3281 393.201 28.0547 392.914 27.8203C392.654 27.5859 392.289 27.3776 391.82 27.1953C391.378 27.013 390.805 26.8438 390.102 26.6875L390.492 25.6719C391.586 25.8021 392.628 25.9323 393.617 26.0625C394.607 26.1927 395.609 26.362 396.625 26.5703C396.521 27.0391 396.43 27.5469 396.352 28.0938C396.273 28.6146 396.234 29.1354 396.234 29.6562V35.0859C396.234 36.0234 396.156 37.013 396 38.0547C395.87 39.1224 395.727 39.9688 395.57 40.5938L393.93 40.8281C393.878 40.6198 393.839 40.3854 393.812 40.125C393.812 39.8646 393.799 39.5911 393.773 39.3047ZM393.656 36.9219V32.8594C391.495 32.7552 389.242 32.7292 386.898 32.7812C384.581 32.8333 382.263 32.9375 379.945 33.0938V35.7109C379.945 36.1016 379.932 36.5052 379.906 36.9219C379.88 37.3125 379.828 37.7161 379.75 38.1328C381.964 38.1068 384.281 38.0417 386.703 37.9375C389.125 37.8594 391.443 37.7422 393.656 37.5859V36.9219ZM433.305 8.44531C433.305 7.5599 432.901 6.85677 432.094 6.33594C431.312 5.78906 430.089 5.32031 428.422 4.92969L428.891 3.875C430.193 4.03125 431.508 4.23958 432.836 4.5C434.164 4.73438 435.336 4.95573 436.352 5.16406C436.247 5.63281 436.156 6.16667 436.078 6.76562C436 7.36458 435.961 7.92448 435.961 8.44531V30.3203C435.961 31.1276 435.935 32.0521 435.883 33.0938C435.857 34.1354 435.818 35.1771 435.766 36.2188C435.714 37.2604 435.635 38.25 435.531 39.1875C435.453 40.125 435.362 40.8932 435.258 41.4922L433.617 41.6875C433.565 41.2448 433.513 40.6849 433.461 40.0078C433.435 39.3568 433.409 38.6406 433.383 37.8594C433.357 37.1042 433.331 36.3229 433.305 35.5156C433.305 34.7083 433.305 33.9271 433.305 33.1719V24.5391C432.159 25.0339 430.792 25.5417 429.203 26.0625C427.615 26.5573 425.974 27.0391 424.281 27.5078C422.589 27.9505 420.909 28.3542 419.242 28.7188C417.602 29.0833 416.143 29.3568 414.867 29.5391C413.695 29.6953 412.862 29.5521 412.367 29.1094C411.872 28.6406 411.625 27.8073 411.625 26.6094V14.6562C411.625 14.2135 411.573 13.8359 411.469 13.5234C411.365 13.2109 411.169 12.9505 410.883 12.7422C410.596 12.5078 410.193 12.3125 409.672 12.1562C409.151 12 408.474 11.8438 407.641 11.6875L408.031 10.6328C409.359 10.6849 410.544 10.776 411.586 10.9062C412.628 11.0365 413.656 11.1927 414.672 11.375C414.568 11.8438 414.477 12.3776 414.398 12.9766C414.32 13.5755 414.281 14.1354 414.281 14.6562V25.7891C414.281 26.3099 414.424 26.6745 414.711 26.8828C414.997 27.0651 415.362 27.1432 415.805 27.1172C416.846 27.0391 418.122 26.8828 419.633 26.6484C421.169 26.4141 422.745 26.1276 424.359 25.7891C426 25.4245 427.602 25.0339 429.164 24.6172C430.753 24.1745 432.133 23.7448 433.305 23.3281V8.44531ZM469.555 8.44531C469.555 7.5599 469.151 6.85677 468.344 6.33594C467.562 5.78906 466.339 5.32031 464.672 4.92969L465.141 3.875C466.443 4.03125 467.758 4.23958 469.086 4.5C470.414 4.73438 471.586 4.95573 472.602 5.16406C472.497 5.63281 472.406 6.16667 472.328 6.76562C472.25 7.36458 472.211 7.92448 472.211 8.44531V19.7344C473.279 19.6823 474.516 19.5911 475.922 19.4609C477.328 19.3307 478.734 19.1354 480.141 18.875L479.75 21.375C479.203 21.349 478.591 21.3359 477.914 21.3359C477.263 21.3359 476.599 21.3359 475.922 21.3359C475.245 21.3359 474.581 21.349 473.93 21.375C473.279 21.375 472.706 21.375 472.211 21.375V30.3203C472.211 31.1276 472.185 32.0521 472.133 33.0938C472.107 34.1354 472.068 35.1771 472.016 36.2188C471.964 37.2604 471.885 38.25 471.781 39.1875C471.703 40.125 471.612 40.8932 471.508 41.4922L469.867 41.6875C469.815 41.2448 469.763 40.6849 469.711 40.0078C469.685 39.3568 469.659 38.6406 469.633 37.8594C469.607 37.1042 469.581 36.3229 469.555 35.5156C469.555 34.7083 469.555 33.9271 469.555 33.1719V25.2422C468.383 25.7109 467.016 26.2057 465.453 26.7266C463.891 27.2214 462.276 27.7031 460.609 28.1719C458.969 28.6146 457.328 29.0182 455.688 29.3828C454.073 29.7474 452.628 30.0208 451.352 30.2031C450.18 30.3594 449.346 30.2161 448.852 29.7734C448.357 29.3307 448.109 28.4974 448.109 27.2734V15.8672C448.109 15.3464 448.07 14.9036 447.992 14.5391C447.914 14.1745 447.745 13.862 447.484 13.6016C447.25 13.3411 446.898 13.1068 446.43 12.8984C445.987 12.6901 445.401 12.4818 444.672 12.2734L445.141 11.2969C446.547 11.5052 448.044 11.6484 449.633 11.7266C451.221 11.7786 452.823 11.7786 454.438 11.7266C456.052 11.6484 457.628 11.5312 459.164 11.375C460.727 11.2188 462.185 11.0234 463.539 10.7891L463.031 13.1328C460.557 13.0286 458.279 13.0156 456.195 13.0938C454.138 13.1719 452.328 13.276 450.766 13.4062V26.4922C450.766 27.013 450.909 27.3776 451.195 27.5859C451.482 27.7682 451.846 27.8333 452.289 27.7812C453.331 27.7031 454.594 27.5469 456.078 27.3125C457.589 27.0781 459.138 26.7917 460.727 26.4531C462.341 26.0885 463.917 25.6979 465.453 25.2812C467.016 24.8646 468.383 24.4349 469.555 23.9922V8.44531ZM485.727 38.3281C485.023 38.3281 484.451 38.1068 484.008 37.6641C483.565 37.2214 483.344 36.6615 483.344 35.9844C483.344 35.3333 483.565 34.7865 484.008 34.3438C484.451 33.875 485.023 33.6406 485.727 33.6406C486.43 33.6406 487.016 33.875 487.484 34.3438C487.953 34.7865 488.188 35.3333 488.188 35.9844C488.188 36.6615 487.953 37.2214 487.484 37.6641C487.016 38.1068 486.43 38.3281 485.727 38.3281Z" fill="white"/>
</svg>
