<svg width="443" height="46" viewBox="0 0 443 46" fill="none" xmlns="http://www.w3.org/2000/svg">
<path d="M19.957 23.3281C18.3164 23.276 16.5326 23.2891 14.6055 23.3672C12.7044 23.4193 10.8164 23.4844 8.94141 23.5625C8.88932 23.8229 8.85026 24.0703 8.82422 24.3047C8.79818 24.513 8.75911 24.7083 8.70703 24.8906L7.10547 25.125C7.02734 24.6042 6.96224 24.0182 6.91016 23.3672C6.85807 22.6901 6.83203 22 6.83203 21.2969V12.4688C6.83203 11.5833 6.6237 10.9323 6.20703 10.5156C5.79036 10.099 4.94401 9.73438 3.66797 9.42188L4.05859 8.48438C4.94401 8.5625 5.85547 8.66667 6.79297 8.79688C7.73047 8.90104 8.72005 9.05729 9.76172 9.26562C9.63151 9.76042 9.52734 10.2812 9.44922 10.8281C9.37109 11.349 9.33203 11.8568 9.33203 12.3516V14.0703C11.0247 14.0443 12.7044 14.0052 14.3711 13.9531C16.0378 13.875 17.8607 13.7318 19.8398 13.5234V10.9453C19.8398 10.5026 19.7747 10.125 19.6445 9.8125C19.5404 9.5 19.3451 9.23958 19.0586 9.03125C18.7982 8.79688 18.4336 8.58854 17.9648 8.40625C17.5221 8.22396 16.9492 8.05469 16.2461 7.89844L16.6758 6.88281C17.7695 7.01302 18.7982 7.14323 19.7617 7.27344C20.7513 7.3776 21.7539 7.53385 22.7695 7.74219C22.6654 8.23698 22.5742 8.75781 22.4961 9.30469C22.418 9.82552 22.3789 10.3333 22.3789 10.8281V14.2656C22.9258 14.3438 23.5898 14.4219 24.3711 14.5C25.1784 14.5521 25.9596 14.5651 26.7148 14.5391C27.2878 14.487 27.8607 14.4609 28.4336 14.4609C29.0065 14.4609 29.5404 14.4609 30.0352 14.4609V8.44531C30.0352 7.5599 29.6315 6.85677 28.8242 6.33594C28.043 5.78906 26.819 5.32031 25.1523 4.92969L25.582 3.875C26.9102 4.03125 28.2253 4.23958 29.5273 4.5C30.8555 4.73438 32.0404 4.95573 33.082 5.16406C32.9518 5.63281 32.8477 6.16667 32.7695 6.76562C32.6914 7.36458 32.6523 7.92448 32.6523 8.44531V19.3047C32.6523 19.7734 32.6263 20.3203 32.5742 20.9453C32.5482 21.5443 32.4961 22.1562 32.418 22.7812C32.3659 23.3802 32.3008 23.9531 32.2227 24.5C32.1706 25.0208 32.1055 25.4505 32.0273 25.7891L30.3086 26.0234C30.2305 25.4766 30.1654 24.7604 30.1133 23.875C30.0612 22.9896 30.0352 22.1823 30.0352 21.4531V15.7891C28.6289 15.8411 27.3919 15.9323 26.3242 16.0625C25.2826 16.1667 24.2669 16.3229 23.2773 16.5312L22.3789 14.6953V19.0312C22.3789 19.5 22.3529 19.9948 22.3008 20.5156C22.2747 21.0104 22.2227 21.5052 22.1445 22C22.0924 22.4688 22.0273 22.9115 21.9492 23.3281C21.8971 23.7448 21.832 24.1094 21.7539 24.4219L20.1133 24.6953C20.0612 24.487 20.0221 24.2656 19.9961 24.0312C19.9961 23.7969 19.9831 23.5625 19.957 23.3281ZM19.8398 20.75V15.3203C18.1211 15.2422 16.4023 15.2292 14.6836 15.2812C12.9909 15.3333 11.207 15.4245 9.33203 15.5547V19.5781C9.33203 19.9688 9.30599 20.3854 9.25391 20.8281C9.22786 21.2448 9.1888 21.6745 9.13672 22.1172C10.8815 22.0911 12.6654 22.0391 14.4883 21.9609C16.3112 21.8828 18.0951 21.7786 19.8398 21.6484V20.75ZM31.3633 37.5078C31.6237 37.4557 31.8581 37.4167 32.0664 37.3906C32.3008 37.3906 32.5221 37.3776 32.7305 37.3516L32.2227 39.5391C31.181 39.4609 30.0091 39.3958 28.707 39.3438C27.431 39.3177 26.1159 39.3047 24.7617 39.3047C23.4076 39.3047 22.0664 39.3177 20.7383 39.3438C19.4102 39.3698 18.1732 39.4089 17.0273 39.4609C16.9753 40.0599 16.8971 40.5938 16.793 41.0625L15.2695 41.3359C15.1393 40.8411 15.0352 40.2552 14.957 39.5781C14.9049 38.901 14.8529 38.224 14.8008 37.5469L14.293 31.4141C14.2409 30.9193 14.1758 30.5156 14.0977 30.2031C14.0456 29.8906 13.9284 29.6302 13.7461 29.4219C13.5638 29.2135 13.3034 29.0443 12.9648 28.9141C12.6263 28.7839 12.1836 28.6406 11.6367 28.4844L12.0664 27.4688C15.4258 27.8854 18.7591 28.0547 22.0664 27.9766C25.3737 27.8724 28.8112 27.6641 32.3789 27.3516C32.2747 28.0807 32.1706 28.888 32.0664 29.7734C31.9622 30.6589 31.8581 31.5573 31.7539 32.4688C31.6758 33.3802 31.5977 34.2786 31.5195 35.1641C31.4674 36.0234 31.4154 36.8047 31.3633 37.5078ZM29.293 29.3438C28.4596 29.3177 27.4831 29.3047 26.3633 29.3047C25.2695 29.2786 24.1497 29.2786 23.0039 29.3047C21.8581 29.3307 20.7513 29.3698 19.6836 29.4219C18.6159 29.474 17.7174 29.526 16.9883 29.5781L17.1445 36.8438V38.0547C19.0977 38.0547 21.1419 38.0156 23.2773 37.9375C25.4128 37.8854 27.3789 37.7943 29.1758 37.6641L29.293 29.3438ZM52.8086 10.1641C53.9023 10.2682 54.9049 10.5286 55.8164 10.9453C56.7279 11.3359 57.5091 11.8438 58.1602 12.4688C58.8372 13.0938 59.3581 13.8099 59.7227 14.6172C60.0872 15.4245 60.2695 16.2969 60.2695 17.2344C60.2695 18.25 60.0482 19.2005 59.6055 20.0859C59.1628 20.9453 58.5508 21.7005 57.7695 22.3516C56.9883 22.9766 56.0638 23.4714 54.9961 23.8359C53.9544 24.1745 52.8086 24.3438 51.5586 24.3438C50.3086 24.3438 49.1497 24.1745 48.082 23.8359C47.0404 23.4714 46.1289 22.9766 45.3477 22.3516C44.5924 21.7005 43.9935 20.9453 43.5508 20.0859C43.1341 19.2005 42.9258 18.25 42.9258 17.2344C42.9258 16.2708 43.1211 15.3594 43.5117 14.5C43.9284 13.6406 44.5013 12.8984 45.2305 12.2734C45.9596 11.6224 46.806 11.1146 47.7695 10.75C48.7591 10.3594 49.8398 10.138 51.0117 10.0859C50.9596 9.7474 50.8164 9.47396 50.582 9.26562C50.3477 9.05729 49.931 8.86198 49.332 8.67969L49.7227 7.9375C50.3216 8.06771 50.9076 8.1849 51.4805 8.28906C52.0534 8.36719 52.6654 8.47135 53.3164 8.60156C53.2122 8.83594 53.1081 9.08333 53.0039 9.34375C52.9258 9.60417 52.8607 9.8776 52.8086 10.1641ZM57.457 17.0391C57.457 16.2578 57.3008 15.5156 56.9883 14.8125C56.7018 14.1094 56.2982 13.5104 55.7773 13.0156C55.2565 12.4948 54.6315 12.0911 53.9023 11.8047C53.1992 11.4922 52.431 11.3359 51.5977 11.3359C50.7643 11.3359 49.9831 11.4922 49.2539 11.8047C48.5508 12.0911 47.9258 12.4948 47.3789 13.0156C46.8581 13.5104 46.4414 14.1094 46.1289 14.8125C45.8424 15.5156 45.6992 16.2578 45.6992 17.0391C45.6992 17.8724 45.8424 18.6276 46.1289 19.3047C46.4414 19.9818 46.8581 20.5807 47.3789 21.1016C47.9258 21.5964 48.5508 21.987 49.2539 22.2734C49.9831 22.5339 50.7643 22.6641 51.5977 22.6641C52.431 22.6641 53.1992 22.5339 53.9023 22.2734C54.6315 21.987 55.2565 21.5964 55.7773 21.1016C56.2982 20.5807 56.7018 19.9818 56.9883 19.3047C57.3008 18.6276 57.457 17.8724 57.457 17.0391ZM63.4336 3.875C64.7617 4.03125 66.0768 4.23958 67.3789 4.5C68.707 4.73438 69.8789 4.95573 70.8945 5.16406C70.7904 5.63281 70.6992 6.16667 70.6211 6.76562C70.543 7.36458 70.5039 7.92448 70.5039 8.44531V24.6562C70.5039 25.2552 70.4909 25.8932 70.4648 26.5703C70.4388 27.2214 70.3867 27.8854 70.3086 28.5625C70.2565 29.2135 70.1914 29.8385 70.1133 30.4375C70.0352 31.0365 69.957 31.5573 69.8789 32L68.1602 32.2734C68.1081 31.9349 68.069 31.5052 68.043 30.9844C68.0169 30.4635 67.9909 29.9167 67.9648 29.3438C67.9388 28.7448 67.9128 28.1458 67.8867 27.5469C67.8867 26.9479 67.8867 26.4141 67.8867 25.9453V8.44531C67.8867 7.5599 67.4831 6.85677 66.6758 6.33594C65.8945 5.78906 64.6706 5.32031 63.0039 4.92969L63.4336 3.875ZM72.7305 39.8906C71.0898 39.8646 69.4492 39.8516 67.8086 39.8516C66.194 39.8516 64.6185 39.8646 63.082 39.8906C61.5456 39.9167 60.0742 39.9557 58.668 40.0078C57.2617 40.0599 55.9727 40.125 54.8008 40.2031C54.0716 40.2552 53.5508 40.099 53.2383 39.7344C52.9258 39.3958 52.7695 38.9661 52.7695 38.4453V33.6406C52.7695 33.0417 52.7305 32.5599 52.6523 32.1953C52.6003 31.8047 52.457 31.4922 52.2227 31.2578C51.9883 30.9974 51.6367 30.7891 51.168 30.6328C50.7253 30.4505 50.1263 30.2552 49.3711 30.0469L49.8008 29.0312C50.1914 29.0833 50.6341 29.1484 51.1289 29.2266C51.6237 29.2786 52.1315 29.3438 52.6523 29.4219C53.1992 29.474 53.7201 29.5391 54.2148 29.6172C54.7357 29.6693 55.1914 29.7214 55.582 29.7734C55.5299 30.0859 55.4779 30.5286 55.4258 31.1016C55.3997 31.6484 55.3867 32.1562 55.3867 32.625V37.1953C55.3867 37.7682 55.5169 38.1328 55.7773 38.2891C56.0378 38.4714 56.5456 38.5755 57.3008 38.6016C58.3164 38.6276 59.4883 38.6146 60.8164 38.5625C62.1706 38.5104 63.5638 38.4323 64.9961 38.3281C66.4544 38.224 67.8867 38.0938 69.293 37.9375C70.7253 37.8073 72.0143 37.651 73.1602 37.4688L72.7305 39.8906ZM117.926 18.2109C116.207 18.263 114.488 18.3411 112.77 18.4453C111.051 18.5234 109.605 18.6667 108.434 18.875L107.379 16.6094C107.9 16.7135 108.59 16.7917 109.449 16.8438C110.309 16.8958 111.129 16.9089 111.91 16.8828C112.405 16.8828 112.939 16.8828 113.512 16.8828C114.111 16.8568 114.684 16.8307 115.23 16.8047C115.803 16.7786 116.324 16.7656 116.793 16.7656C117.262 16.7396 117.639 16.7005 117.926 16.6484V8.44531C117.926 7.5599 117.522 6.85677 116.715 6.33594C115.934 5.78906 114.71 5.32031 113.043 4.92969L113.473 3.875C114.801 4.03125 116.116 4.23958 117.418 4.5C118.746 4.73438 119.918 4.95573 120.934 5.16406C120.829 5.63281 120.738 6.16667 120.66 6.76562C120.582 7.36458 120.543 7.92448 120.543 8.44531V18.4453C120.543 18.9141 120.517 19.4609 120.465 20.0859C120.439 20.6849 120.387 21.2969 120.309 21.9219C120.257 22.5208 120.191 23.0938 120.113 23.6406C120.061 24.1615 119.996 24.5911 119.918 24.9297L118.199 25.1641C118.121 24.5911 118.056 23.862 118.004 22.9766C117.952 22.0911 117.926 21.2839 117.926 20.5547V18.2109ZM110.504 8.91406C109.879 10.8411 108.902 12.7682 107.574 14.6953C106.272 16.5964 104.775 18.4062 103.082 20.125C101.389 21.8177 99.5664 23.3411 97.6133 24.6953C95.6602 26.0495 93.7461 27.1172 91.8711 27.8984L91.1289 27.0781C92.7956 26.1927 94.4232 25.151 96.0117 23.9531C97.6003 22.7292 99.0716 21.401 100.426 19.9688C101.78 18.5104 102.991 16.987 104.059 15.3984C105.152 13.7839 106.025 12.1432 106.676 10.4766C106.103 10.4766 105.465 10.4896 104.762 10.5156C104.085 10.5156 103.421 10.5286 102.77 10.5547C102.118 10.5807 101.52 10.6068 100.973 10.6328C100.452 10.6589 100.061 10.6849 99.8008 10.7109C99.5404 10.737 99.1758 10.763 98.707 10.7891C98.2643 10.8151 97.7826 10.8542 97.2617 10.9062C96.7669 10.9583 96.2591 11.0234 95.7383 11.1016C95.2435 11.1536 94.8008 11.2318 94.4102 11.3359L92.8477 8.83594C93.1081 8.88802 93.4596 8.9401 93.9023 8.99219C94.3451 9.01823 94.8268 9.05729 95.3477 9.10938C95.8685 9.13542 96.3893 9.16146 96.9102 9.1875C97.431 9.21354 97.9128 9.22656 98.3555 9.22656C99.4492 9.22656 100.569 9.20052 101.715 9.14844C102.861 9.09635 103.928 9.03125 104.918 8.95312C105.934 8.875 106.845 8.78385 107.652 8.67969C108.46 8.54948 109.085 8.41927 109.527 8.28906L110.504 8.91406ZM119.527 37.5078C119.788 37.4557 120.022 37.4167 120.23 37.3906C120.465 37.3906 120.686 37.3776 120.895 37.3516L120.387 39.5391C119.345 39.4609 118.16 39.3958 116.832 39.3438C115.504 39.3177 114.137 39.3047 112.73 39.3047C111.324 39.3047 109.931 39.3177 108.551 39.3438C107.171 39.3698 105.908 39.4089 104.762 39.4609C104.71 40.0599 104.632 40.5938 104.527 41.0625L103.004 41.3359C102.874 40.8151 102.77 40.2161 102.691 39.5391C102.613 38.888 102.548 38.224 102.496 37.5469L102.027 30.3984C102.001 29.9036 101.949 29.5 101.871 29.1875C101.793 28.875 101.663 28.6276 101.48 28.4453C101.298 28.237 101.038 28.0677 100.699 27.9375C100.361 27.7812 99.918 27.625 99.3711 27.4688L99.8008 26.4922C103.186 26.8828 106.598 27.0391 110.035 26.9609C113.473 26.8568 116.975 26.6615 120.543 26.375C120.439 27.1042 120.335 27.9635 120.23 28.9531C120.126 29.9167 120.022 30.9193 119.918 31.9609C119.84 32.9766 119.762 33.9792 119.684 34.9688C119.632 35.9323 119.579 36.7786 119.527 37.5078ZM117.457 28.3672C116.624 28.3411 115.621 28.3281 114.449 28.3281C113.303 28.3021 112.132 28.3021 110.934 28.3281C109.736 28.3542 108.577 28.3932 107.457 28.4453C106.363 28.4714 105.452 28.5104 104.723 28.5625L104.879 36.8438V38.0547C105.842 38.0547 106.858 38.0417 107.926 38.0156C109.02 38.0156 110.1 37.9896 111.168 37.9375C112.236 37.9115 113.29 37.8724 114.332 37.8203C115.4 37.7943 116.402 37.7422 117.34 37.6641L117.457 28.3672ZM155.504 22.1953C153.811 22.2474 152.171 22.3125 150.582 22.3906C149.02 22.4688 147.652 22.625 146.48 22.8594L145.426 20.5547C145.947 20.6589 146.637 20.737 147.496 20.7891C148.355 20.8411 149.176 20.8542 149.957 20.8281C150.426 20.8281 150.921 20.8281 151.441 20.8281C151.962 20.8021 152.47 20.7891 152.965 20.7891C153.486 20.763 153.967 20.737 154.41 20.7109C154.853 20.6849 155.217 20.6589 155.504 20.6328V8.44531C155.504 7.5599 155.1 6.85677 154.293 6.33594C153.512 5.78906 152.288 5.32031 150.621 4.92969L151.09 3.875C152.392 4.03125 153.707 4.23958 155.035 4.5C156.363 4.73438 157.535 4.95573 158.551 5.16406C158.447 5.63281 158.355 6.16667 158.277 6.76562C158.199 7.36458 158.16 7.92448 158.16 8.44531V30.3203C158.16 31.1276 158.134 32.0521 158.082 33.0938C158.056 34.1354 158.017 35.1771 157.965 36.2188C157.913 37.2604 157.848 38.25 157.77 39.1875C157.691 40.125 157.6 40.8932 157.496 41.4922L155.855 41.6875C155.803 41.2448 155.751 40.6849 155.699 40.0078C155.647 39.3568 155.608 38.6406 155.582 37.8594C155.556 37.1042 155.53 36.3229 155.504 35.5156C155.504 34.7083 155.504 33.9271 155.504 33.1719V22.1953ZM148.512 11.4141C147.757 13.6797 146.741 15.8802 145.465 18.0156C144.215 20.151 142.77 22.1562 141.129 24.0312C139.514 25.9062 137.77 27.599 135.895 29.1094C134.02 30.6198 132.092 31.8698 130.113 32.8594L129.254 32C131.129 30.8802 132.887 29.5781 134.527 28.0938C136.194 26.6094 137.691 25.0208 139.02 23.3281C140.374 21.6354 141.533 19.8906 142.496 18.0938C143.46 16.2708 144.202 14.487 144.723 12.7422C144.332 12.7422 143.798 12.7552 143.121 12.7812C142.47 12.8073 141.78 12.8333 141.051 12.8594C140.322 12.8854 139.632 12.9115 138.98 12.9375C138.329 12.9635 137.822 12.9766 137.457 12.9766C137.171 12.9766 136.793 13.0026 136.324 13.0547C135.882 13.0807 135.4 13.1198 134.879 13.1719C134.384 13.224 133.876 13.276 133.355 13.3281C132.835 13.3802 132.353 13.4453 131.91 13.5234L130.387 11.0625C130.725 11.1406 131.116 11.2057 131.559 11.2578C132.001 11.3099 132.457 11.362 132.926 11.4141C133.421 11.4401 133.902 11.4661 134.371 11.4922C134.866 11.4922 135.335 11.4922 135.777 11.4922C136.741 11.4922 137.757 11.4792 138.824 11.4531C139.918 11.4271 140.986 11.375 142.027 11.2969C143.095 11.2188 144.111 11.1276 145.074 11.0234C146.038 10.8932 146.884 10.737 147.613 10.5547L148.512 11.4141ZM177.105 13.1328C177.991 13.237 178.811 13.4453 179.566 13.7578C180.348 14.0703 181.038 14.487 181.637 15.0078C182.262 15.5026 182.77 16.0755 183.16 16.7266C183.551 17.3776 183.824 18.0807 183.98 18.8359C184.293 18.862 184.618 18.888 184.957 18.9141C185.322 18.9141 185.673 18.901 186.012 18.875C186.689 18.849 187.21 18.8359 187.574 18.8359C187.965 18.8099 188.316 18.7839 188.629 18.7578V10.125C188.629 9.26562 188.355 8.57552 187.809 8.05469C187.262 7.53385 186.22 7.07812 184.684 6.6875L185.113 5.63281C186.415 5.78906 187.561 5.95833 188.551 6.14062C189.54 6.32292 190.543 6.54427 191.559 6.80469C191.454 7.27344 191.363 7.82031 191.285 8.44531C191.207 9.04427 191.168 9.60417 191.168 10.125V28.9141C191.168 29.7214 191.142 30.6328 191.09 31.6484C191.064 32.6641 191.012 33.6927 190.934 34.7344C190.882 35.75 190.816 36.7266 190.738 37.6641C190.66 38.6276 190.569 39.4349 190.465 40.0859L188.941 40.2812C188.889 39.7865 188.85 39.2005 188.824 38.5234C188.798 37.8724 188.759 37.1693 188.707 36.4141C188.681 35.6589 188.655 34.8906 188.629 34.1094C188.629 33.3021 188.629 32.5208 188.629 31.7656V20.125C187.04 20.2031 185.517 20.4115 184.059 20.75C183.98 21.6875 183.707 22.5599 183.238 23.3672C182.796 24.1484 182.21 24.8255 181.48 25.3984C180.777 25.9714 179.944 26.4271 178.98 26.7656C178.017 27.0781 176.988 27.2344 175.895 27.2344C174.723 27.2344 173.629 27.0521 172.613 26.6875C171.598 26.3229 170.725 25.8281 169.996 25.2031C169.267 24.5781 168.694 23.8359 168.277 22.9766C167.861 22.0911 167.652 21.1406 167.652 20.125C167.652 19.1615 167.848 18.263 168.238 17.4297C168.629 16.5703 169.163 15.8281 169.84 15.2031C170.517 14.5781 171.324 14.0833 172.262 13.7188C173.225 13.3281 174.254 13.1068 175.348 13.0547C175.296 12.6901 175.152 12.4036 174.918 12.1953C174.71 11.9609 174.306 11.7396 173.707 11.5312L174.098 10.75C174.671 10.8802 175.243 10.9974 175.816 11.1016C176.389 11.1797 176.988 11.2969 177.613 11.4531C177.509 11.7135 177.405 11.974 177.301 12.2344C177.223 12.4948 177.158 12.7943 177.105 13.1328ZM181.598 20.0078C181.598 19.2005 181.454 18.4583 181.168 17.7812C180.882 17.0781 180.491 16.4792 179.996 15.9844C179.501 15.4635 178.902 15.0599 178.199 14.7734C177.496 14.4609 176.741 14.3047 175.934 14.3047C175.126 14.3047 174.371 14.4609 173.668 14.7734C172.965 15.0599 172.353 15.4635 171.832 15.9844C171.337 16.4792 170.947 17.0781 170.66 17.7812C170.374 18.4583 170.23 19.2005 170.23 20.0078C170.23 20.8151 170.374 21.5573 170.66 22.2344C170.947 22.9115 171.337 23.4974 171.832 23.9922C172.353 24.487 172.965 24.8776 173.668 25.1641C174.371 25.4505 175.126 25.5938 175.934 25.5938C176.741 25.5938 177.496 25.4505 178.199 25.1641C178.902 24.8776 179.501 24.487 179.996 23.9922C180.491 23.4974 180.882 22.9115 181.168 22.2344C181.454 21.5573 181.598 20.8151 181.598 20.0078ZM191.52 3.875C192.822 4.05729 194.046 4.26562 195.191 4.5C196.337 4.73438 197.418 4.95573 198.434 5.16406C198.329 5.63281 198.238 6.16667 198.16 6.76562C198.082 7.36458 198.043 7.92448 198.043 8.44531V30.3203C198.043 31.1276 198.017 32.0391 197.965 33.0547C197.939 34.0703 197.9 35.099 197.848 36.1406C197.796 37.1562 197.73 38.1328 197.652 39.0703C197.574 40.0339 197.483 40.8411 197.379 41.4922L195.777 41.6875C195.725 41.1927 195.686 40.6068 195.66 39.9297C195.634 39.2526 195.595 38.5365 195.543 37.7812C195.517 37.026 195.491 36.2578 195.465 35.4766C195.465 34.6953 195.465 33.9271 195.465 33.1719V8.44531C195.465 7.58594 195.139 6.89583 194.488 6.375C193.863 5.82812 192.73 5.34635 191.09 4.92969L191.52 3.875ZM228.824 15.8281C229.501 16.4271 230.178 17 230.855 17.5469C231.533 18.0677 232.249 18.6016 233.004 19.1484C233.759 19.6693 234.553 20.2031 235.387 20.75C236.246 21.2969 237.171 21.8698 238.16 22.4688L235.895 24.5391C235.191 23.8099 234.514 23.1328 233.863 22.5078C233.238 21.8828 232.613 21.2839 231.988 20.7109C231.363 20.112 230.725 19.513 230.074 18.9141C229.423 18.3151 228.72 17.651 227.965 16.9219C226.376 18.7969 224.632 20.4505 222.73 21.8828C220.829 23.3151 218.876 24.6042 216.871 25.75L216.207 24.9688C217.613 24.0312 218.98 23.0026 220.309 21.8828C221.663 20.737 222.9 19.5391 224.02 18.2891C225.139 17.0391 226.116 15.737 226.949 14.3828C227.783 13.0286 228.395 11.6745 228.785 10.3203C228.915 9.95573 228.98 9.68229 228.98 9.5C229.007 9.31771 228.85 9.10938 228.512 8.875C228.277 8.71875 227.965 8.52344 227.574 8.28906C227.21 8.05469 226.728 7.79427 226.129 7.50781L226.754 6.72656C227.848 7.01302 228.876 7.28646 229.84 7.54688C230.829 7.80729 231.832 8.14583 232.848 8.5625C232.327 9.96875 231.728 11.2708 231.051 12.4688C230.4 13.6406 229.658 14.7604 228.824 15.8281ZM239.566 28.25C240.608 28.3281 241.559 28.5625 242.418 28.9531C243.303 29.3177 244.059 29.7865 244.684 30.3594C245.309 30.9323 245.79 31.5964 246.129 32.3516C246.493 33.1068 246.676 33.9141 246.676 34.7734C246.676 35.7109 246.467 36.5833 246.051 37.3906C245.634 38.1979 245.048 38.888 244.293 39.4609C243.564 40.0599 242.704 40.5156 241.715 40.8281C240.725 41.1667 239.645 41.3359 238.473 41.3359C237.301 41.3359 236.22 41.1667 235.23 40.8281C234.241 40.5156 233.382 40.0599 232.652 39.4609C231.949 38.888 231.389 38.1979 230.973 37.3906C230.556 36.5833 230.348 35.7109 230.348 34.7734C230.348 33.888 230.53 33.0677 230.895 32.3125C231.259 31.5312 231.767 30.8542 232.418 30.2812C233.095 29.6823 233.889 29.2005 234.801 28.8359C235.712 28.4714 236.702 28.263 237.77 28.2109C237.717 27.8984 237.574 27.651 237.34 27.4688C237.105 27.2604 236.689 27.0651 236.09 26.8828L236.48 26.1016C237.079 26.2318 237.665 26.349 238.238 26.4531C238.811 26.5573 239.41 26.6745 240.035 26.8047C239.931 27.013 239.84 27.2344 239.762 27.4688C239.684 27.7031 239.618 27.9635 239.566 28.25ZM243.863 34.5781C243.863 33.849 243.72 33.1719 243.434 32.5469C243.147 31.9219 242.757 31.375 242.262 30.9062C241.793 30.4375 241.22 30.0729 240.543 29.8125C239.892 29.526 239.189 29.3828 238.434 29.3828C237.678 29.3828 236.975 29.526 236.324 29.8125C235.673 30.0729 235.1 30.4375 234.605 30.9062C234.111 31.375 233.72 31.9219 233.434 32.5469C233.173 33.1719 233.043 33.849 233.043 34.5781C233.043 35.2812 233.173 35.9453 233.434 36.5703C233.72 37.1953 234.111 37.7422 234.605 38.2109C235.1 38.6797 235.673 39.0443 236.324 39.3047C236.975 39.5651 237.678 39.6953 238.434 39.6953C239.215 39.6953 239.931 39.5651 240.582 39.3047C241.233 39.0443 241.806 38.6797 242.301 38.2109C242.796 37.7422 243.173 37.1953 243.434 36.5703C243.72 35.9453 243.863 35.2812 243.863 34.5781ZM244.176 15.6719C243.368 15.6979 242.535 15.737 241.676 15.7891C240.842 15.8411 240.022 15.9062 239.215 15.9844C238.408 16.0365 237.652 16.1016 236.949 16.1797C236.246 16.2578 235.647 16.349 235.152 16.4531L234.137 14.1484C234.397 14.2005 234.697 14.2526 235.035 14.3047C235.4 14.3307 235.777 14.3568 236.168 14.3828C236.585 14.4089 237.001 14.4219 237.418 14.4219C237.835 14.4219 238.238 14.4219 238.629 14.4219C238.993 14.4219 239.41 14.4219 239.879 14.4219C240.348 14.3958 240.829 14.3828 241.324 14.3828C241.819 14.3828 242.314 14.3828 242.809 14.3828C243.303 14.3568 243.759 14.3438 244.176 14.3438V8.40625C244.176 7.52083 243.772 6.81771 242.965 6.29688C242.184 5.75 240.96 5.28125 239.293 4.89062L239.723 3.83594C241.051 3.99219 242.366 4.20052 243.668 4.46094C244.996 4.69531 246.181 4.91667 247.223 5.125C247.118 5.59375 247.014 6.1276 246.91 6.72656C246.832 7.32552 246.793 7.88542 246.793 8.40625V20.7891C246.793 21.2578 246.767 21.8047 246.715 22.4297C246.689 23.0286 246.637 23.6406 246.559 24.2656C246.507 24.8646 246.441 25.4375 246.363 25.9844C246.311 26.5052 246.246 26.9349 246.168 27.2734L244.449 27.5078C244.371 26.9609 244.306 26.2448 244.254 25.3594C244.202 24.4479 244.176 23.6406 244.176 22.9375V15.6719ZM271.715 21.7656C272.6 21.7396 273.46 21.7135 274.293 21.6875C275.126 21.6615 275.908 21.6354 276.637 21.6094C277.392 21.5833 278.069 21.5703 278.668 21.5703C279.293 21.5443 279.814 21.5182 280.23 21.4922C282.027 21.4141 283.733 21.3099 285.348 21.1797C286.962 21.0234 288.473 20.8411 289.879 20.6328L289.488 23.2109C288.447 23.1589 287.158 23.1198 285.621 23.0938C284.111 23.0677 282.47 23.0417 280.699 23.0156C279.97 23.0156 279.033 23.0286 277.887 23.0547C276.741 23.0547 275.491 23.0677 274.137 23.0938C272.809 23.1198 271.441 23.1589 270.035 23.2109C268.629 23.237 267.288 23.276 266.012 23.3281C264.736 23.3802 263.59 23.4323 262.574 23.4844C261.559 23.5104 260.79 23.5365 260.27 23.5625C259.254 23.6146 258.238 23.6797 257.223 23.7578C256.233 23.8359 255.257 23.9401 254.293 24.0703L253.277 21.375C254.501 21.5052 255.66 21.6094 256.754 21.6875C257.848 21.7396 259.007 21.7917 260.23 21.8438C261.142 21.8958 262.405 21.9219 264.02 21.9219C265.634 21.8958 267.353 21.8568 269.176 21.8047V16.7266C269.176 16.2839 269.137 15.9062 269.059 15.5938C268.98 15.2812 268.837 15.0208 268.629 14.8125C268.421 14.6042 268.108 14.4219 267.691 14.2656C267.275 14.1094 266.741 13.9531 266.09 13.7969L266.48 12.8594C267.366 12.9115 268.264 12.9896 269.176 13.0938C270.113 13.1719 271.09 13.3151 272.105 13.5234C272.001 13.9922 271.91 14.5 271.832 15.0469C271.754 15.5677 271.715 16.0885 271.715 16.6094V21.7656ZM273.238 27.9375C274.306 28.0156 275.296 28.25 276.207 28.6406C277.118 29.0052 277.9 29.487 278.551 30.0859C279.202 30.6589 279.71 31.3359 280.074 32.1172C280.439 32.8724 280.621 33.6927 280.621 34.5781C280.621 35.5417 280.4 36.4271 279.957 37.2344C279.54 38.0677 278.941 38.7839 278.16 39.3828C277.405 40.0078 276.507 40.4896 275.465 40.8281C274.423 41.1667 273.303 41.3359 272.105 41.3359C270.882 41.3359 269.749 41.1667 268.707 40.8281C267.691 40.4896 266.806 40.0078 266.051 39.3828C265.322 38.7839 264.736 38.0677 264.293 37.2344C263.876 36.4271 263.668 35.5417 263.668 34.5781C263.668 33.6667 263.863 32.8203 264.254 32.0391C264.645 31.2318 265.178 30.5417 265.855 29.9688C266.533 29.3698 267.34 28.888 268.277 28.5234C269.241 28.1589 270.27 27.9505 271.363 27.8984C271.311 27.5339 271.155 27.2474 270.895 27.0391C270.66 26.8307 270.23 26.6224 269.605 26.4141L270.074 25.6719C270.673 25.8021 271.272 25.9193 271.871 26.0234C272.47 26.1016 273.108 26.2188 273.785 26.375C273.681 26.6354 273.577 26.8958 273.473 27.1562C273.395 27.3906 273.316 27.651 273.238 27.9375ZM277.848 34.3438C277.848 33.6146 277.704 32.9245 277.418 32.2734C277.132 31.6224 276.728 31.0625 276.207 30.5938C275.686 30.099 275.074 29.7214 274.371 29.4609C273.668 29.1745 272.913 29.0312 272.105 29.0312C271.298 29.0312 270.543 29.1745 269.84 29.4609C269.137 29.7214 268.525 30.099 268.004 30.5938C267.509 31.0625 267.118 31.6224 266.832 32.2734C266.546 32.9245 266.402 33.6146 266.402 34.3438C266.402 35.099 266.546 35.8021 266.832 36.4531C267.118 37.1042 267.509 37.6641 268.004 38.1328C268.525 38.6276 269.137 39.0052 269.84 39.2656C270.543 39.5521 271.298 39.6953 272.105 39.6953C272.939 39.6953 273.707 39.5521 274.41 39.2656C275.113 39.0052 275.712 38.6276 276.207 38.1328C276.728 37.6641 277.132 37.1042 277.418 36.4531C277.704 35.8021 277.848 35.099 277.848 34.3438ZM278.707 18.5625C279.15 16.8177 279.501 15.0469 279.762 13.25C280.048 11.4531 280.243 9.69531 280.348 7.97656C279.358 7.97656 278.251 8.0026 277.027 8.05469C275.829 8.08073 274.632 8.11979 273.434 8.17188C272.236 8.19792 271.077 8.23698 269.957 8.28906C268.863 8.34115 267.913 8.38021 267.105 8.40625C266.715 8.43229 266.233 8.45833 265.66 8.48438C265.113 8.51042 264.527 8.54948 263.902 8.60156C263.303 8.6276 262.704 8.67969 262.105 8.75781C261.533 8.8099 261.012 8.875 260.543 8.95312L259.176 6.45312C260.217 6.58333 261.259 6.6875 262.301 6.76562C263.368 6.84375 264.319 6.88281 265.152 6.88281C266.559 6.88281 268.069 6.86979 269.684 6.84375C271.298 6.81771 272.9 6.76562 274.488 6.6875C276.103 6.60938 277.652 6.51823 279.137 6.41406C280.647 6.28385 282.001 6.11458 283.199 5.90625L283.941 6.60938C283.733 7.625 283.512 8.66667 283.277 9.73438C283.043 10.8021 282.77 11.8568 282.457 12.8984C282.171 13.9401 281.858 14.9557 281.52 15.9453C281.207 16.9089 280.868 17.7812 280.504 18.5625H278.707ZM316.402 18.1328C317.366 18.1328 318.238 18.1198 319.02 18.0938C319.827 18.0417 320.66 17.9635 321.52 17.8594V8.44531C321.52 7.58594 321.194 6.89583 320.543 6.375C319.918 5.82812 318.785 5.34635 317.145 4.92969L317.574 3.875C318.876 4.05729 320.1 4.26562 321.246 4.5C322.392 4.73438 323.473 4.95573 324.488 5.16406C324.384 5.63281 324.293 6.16667 324.215 6.76562C324.137 7.36458 324.098 7.92448 324.098 8.44531V18.5234C324.098 20.138 324.02 21.5964 323.863 22.8984C323.707 24.2005 323.525 25.5156 323.316 26.8438L321.715 27.0781C321.663 26.1927 321.611 25.2682 321.559 24.3047C321.533 23.3151 321.52 22.3646 321.52 21.4531V19.5391C320.53 19.5651 319.658 19.5911 318.902 19.6172C318.147 19.6432 317.314 19.7083 316.402 19.8125C316.376 21.2708 316.272 22.5078 316.09 23.5234C315.908 24.513 315.738 25.4245 315.582 26.2578L314.059 26.4531C314.007 26.0104 313.954 25.3724 313.902 24.5391C313.876 23.7057 313.863 22.8333 313.863 21.9219V10.125C313.863 9.26562 313.577 8.57552 313.004 8.05469C312.457 7.53385 311.428 7.07812 309.918 6.6875L310.348 5.63281C311.624 5.78906 312.757 5.95833 313.746 6.14062C314.762 6.32292 315.777 6.54427 316.793 6.80469C316.689 7.27344 316.598 7.82031 316.52 8.44531C316.441 9.04427 316.402 9.60417 316.402 10.125V18.1328ZM312.105 13.0938C311.246 13.0938 310.217 13.1068 309.02 13.1328C307.848 13.1328 306.637 13.1589 305.387 13.2109C304.163 13.237 302.965 13.276 301.793 13.3281C300.647 13.3802 299.671 13.4193 298.863 13.4453C298.551 13.4714 298.173 13.4974 297.73 13.5234C297.288 13.5495 296.832 13.5885 296.363 13.6406C295.895 13.6667 295.426 13.7057 294.957 13.7578C294.514 13.8099 294.137 13.862 293.824 13.9141L292.652 11.5312C293.355 11.6615 294.189 11.7656 295.152 11.8438C296.142 11.9219 297.001 11.9609 297.73 11.9609C298.59 11.9609 299.618 11.9479 300.816 11.9219C302.04 11.8698 303.316 11.8047 304.645 11.7266C305.999 11.6484 307.353 11.5443 308.707 11.4141C310.087 11.2578 311.35 11.0755 312.496 10.8672L312.105 13.0938ZM307.652 9.03125C306.767 9.00521 305.882 9.01823 304.996 9.07031C304.111 9.09635 303.316 9.10938 302.613 9.10938C302.249 9.10938 301.689 9.13542 300.934 9.1875C300.178 9.21354 299.475 9.27865 298.824 9.38281L297.652 7.11719C298.277 7.2474 298.98 7.3776 299.762 7.50781C300.569 7.63802 301.35 7.70312 302.105 7.70312C302.757 7.70312 303.629 7.66406 304.723 7.58594C305.816 7.48177 306.962 7.35156 308.16 7.19531L307.652 9.03125ZM310.777 20.9062C310.777 21.7135 310.582 22.4688 310.191 23.1719C309.827 23.875 309.319 24.5 308.668 25.0469C308.017 25.5677 307.249 25.9844 306.363 26.2969C305.478 26.5833 304.527 26.7266 303.512 26.7266C302.496 26.7266 301.546 26.5833 300.66 26.2969C299.775 25.9844 298.993 25.5677 298.316 25.0469C297.665 24.5 297.145 23.875 296.754 23.1719C296.389 22.4688 296.207 21.7135 296.207 20.9062C296.207 20.0469 296.389 19.2656 296.754 18.5625C297.145 17.8594 297.665 17.2474 298.316 16.7266C298.993 16.2057 299.775 15.8021 300.66 15.5156C301.546 15.2292 302.496 15.0859 303.512 15.0859C304.579 15.0859 305.556 15.2552 306.441 15.5938C307.353 15.9062 308.121 16.3359 308.746 16.8828C309.397 17.4036 309.892 18.0156 310.23 18.7188C310.595 19.4219 310.777 20.151 310.777 20.9062ZM298.941 20.75C298.941 21.375 299.046 21.9609 299.254 22.5078C299.488 23.0547 299.814 23.5365 300.23 23.9531C300.647 24.3438 301.129 24.6693 301.676 24.9297C302.223 25.1641 302.835 25.2812 303.512 25.2812C304.163 25.2812 304.762 25.1641 305.309 24.9297C305.882 24.6953 306.376 24.3828 306.793 23.9922C307.21 23.5755 307.535 23.0938 307.77 22.5469C308.004 21.974 308.121 21.375 308.121 20.75C308.121 20.151 308.004 19.5781 307.77 19.0312C307.561 18.4844 307.249 18.0156 306.832 17.625C306.441 17.2083 305.96 16.8828 305.387 16.6484C304.814 16.388 304.189 16.2578 303.512 16.2578C302.861 16.2578 302.249 16.375 301.676 16.6094C301.129 16.8438 300.647 17.1693 300.23 17.5859C299.84 17.9766 299.527 18.4453 299.293 18.9922C299.059 19.5391 298.941 20.125 298.941 20.75ZM307.496 33.3672C308.355 34.2266 309.228 35.0339 310.113 35.7891C311.025 36.5182 312.04 37.2214 313.16 37.8984C314.28 36.7005 315.257 35.4896 316.09 34.2656C316.923 33.0156 317.6 31.7005 318.121 30.3203C318.251 30.0078 318.303 29.7734 318.277 29.6172C318.277 29.4349 318.173 29.2396 317.965 29.0312C317.835 28.901 317.548 28.7057 317.105 28.4453C316.663 28.1849 316.259 27.9505 315.895 27.7422L316.441 27C316.78 27.0521 317.184 27.1302 317.652 27.2344C318.147 27.3385 318.655 27.4557 319.176 27.5859C319.697 27.6901 320.191 27.8203 320.66 27.9766C321.155 28.1068 321.585 28.224 321.949 28.3281C321.663 29.1615 321.298 29.9818 320.855 30.7891C320.439 31.5964 319.97 32.3906 319.449 33.1719C320.621 34.3438 321.897 35.4896 323.277 36.6094C324.684 37.7031 326.051 38.6406 327.379 39.4219L325.152 41.2578L318.629 34.3047C317.379 35.9193 316.012 37.3646 314.527 38.6406C313.043 39.9167 311.676 40.9323 310.426 41.6875L309.723 41.0625C310.035 40.8021 310.335 40.5417 310.621 40.2812C310.934 40.0208 311.233 39.7474 311.52 39.4609L306.637 34.4219C305.986 35.2031 305.283 35.9453 304.527 36.6484C303.772 37.3516 302.991 38.0026 302.184 38.6016C301.402 39.2005 300.608 39.7474 299.801 40.2422C298.993 40.763 298.225 41.2188 297.496 41.6094L296.793 40.9453C298.824 39.6693 300.647 38.1849 302.262 36.4922C303.876 34.7995 305.087 33.0156 305.895 31.1406C306.025 30.8542 306.077 30.6328 306.051 30.4766C306.051 30.2943 305.947 30.099 305.738 29.8906C305.608 29.7344 305.322 29.526 304.879 29.2656C304.436 29.0052 304.033 28.7969 303.668 28.6406L304.254 27.8594C304.592 27.9115 305.009 27.9896 305.504 28.0938C305.999 28.1979 306.507 28.3151 307.027 28.4453C307.548 28.5755 308.043 28.7057 308.512 28.8359C309.007 28.9661 309.436 29.0964 309.801 29.2266C309.254 30.6849 308.486 32.0651 307.496 33.3672ZM348.16 10.1641C350.243 11.2578 352.509 12.2604 354.957 13.1719C357.431 14.0833 360.022 14.9557 362.73 15.7891L360.387 18.0938C358.46 17 356.337 15.8672 354.02 14.6953C351.702 13.4974 349.436 12.2995 347.223 11.1016C345.27 13.0547 343.069 14.6953 340.621 16.0234C338.199 17.3255 335.712 18.4323 333.16 19.3438L332.34 18.4844C333.876 17.9375 335.361 17.2734 336.793 16.4922C338.251 15.7109 339.605 14.8516 340.855 13.9141C342.105 12.9766 343.225 11.987 344.215 10.9453C345.23 9.90365 346.077 8.83594 346.754 7.74219C346.962 7.42969 347.053 7.18229 347.027 7C347.027 6.79167 346.871 6.58333 346.559 6.375C346.324 6.19271 346.051 6.01042 345.738 5.82812C345.426 5.64583 344.931 5.38542 344.254 5.04688L344.957 4.10938C347.014 4.68229 349.098 5.38542 351.207 6.21875C350.27 7.67708 349.254 8.99219 348.16 10.1641ZM365.504 23.2109C364.462 23.1589 363.173 23.1198 361.637 23.0938C360.126 23.0677 358.486 23.0417 356.715 23.0156C355.986 23.0156 355.048 23.0286 353.902 23.0547C352.757 23.0547 351.507 23.0677 350.152 23.0938C348.824 23.1198 347.457 23.1589 346.051 23.2109C344.645 23.237 343.303 23.276 342.027 23.3281C340.751 23.3802 339.605 23.4323 338.59 23.4844C337.574 23.5104 336.806 23.5365 336.285 23.5625C335.27 23.6146 334.254 23.6797 333.238 23.7578C332.249 23.8359 331.272 23.9401 330.309 24.0703L329.293 21.375C330.517 21.5052 331.676 21.6094 332.77 21.6875C333.863 21.7396 335.022 21.7917 336.246 21.8438C336.897 21.8698 337.757 21.8828 338.824 21.8828C339.892 21.8828 341.051 21.8828 342.301 21.8828C343.577 21.8568 344.892 21.8307 346.246 21.8047C347.626 21.7526 348.941 21.7135 350.191 21.6875C351.467 21.6615 352.626 21.6354 353.668 21.6094C354.736 21.5573 355.595 21.5182 356.246 21.4922C358.043 21.4141 359.749 21.3099 361.363 21.1797C362.978 21.0234 364.488 20.8411 365.895 20.6328L365.504 23.2109ZM355.738 39.3047C353.655 39.2266 351.389 39.2266 348.941 39.3047C346.493 39.3828 344.033 39.487 341.559 39.6172C341.507 39.8776 341.454 40.125 341.402 40.3594C341.376 40.5938 341.337 40.8151 341.285 41.0234L339.684 41.2969C339.605 40.776 339.54 40.1771 339.488 39.5C339.436 38.849 339.41 38.1589 339.41 37.4297V30.9453C339.41 30.0599 339.202 29.4089 338.785 28.9922C338.368 28.5755 337.522 28.224 336.246 27.9375L336.637 26.9609C337.522 27.0391 338.434 27.1432 339.371 27.2734C340.309 27.3776 341.285 27.5339 342.301 27.7422C342.197 28.237 342.105 28.7578 342.027 29.3047C341.949 29.8255 341.91 30.3333 341.91 30.8281V31.6094C344.098 31.5833 346.337 31.5312 348.629 31.4531C350.921 31.375 353.251 31.2318 355.621 31.0234V29.7734C355.621 29.3307 355.569 28.9531 355.465 28.6406C355.361 28.3281 355.165 28.0547 354.879 27.8203C354.618 27.5859 354.254 27.3776 353.785 27.1953C353.342 27.013 352.77 26.8438 352.066 26.6875L352.457 25.6719C353.551 25.8021 354.592 25.9323 355.582 26.0625C356.572 26.1927 357.574 26.362 358.59 26.5703C358.486 27.0391 358.395 27.5469 358.316 28.0938C358.238 28.6146 358.199 29.1354 358.199 29.6562V35.0859C358.199 36.0234 358.121 37.013 357.965 38.0547C357.835 39.1224 357.691 39.9688 357.535 40.5938L355.895 40.8281C355.842 40.6198 355.803 40.3854 355.777 40.125C355.777 39.8646 355.764 39.5911 355.738 39.3047ZM355.621 36.9219V32.8594C353.46 32.7552 351.207 32.7292 348.863 32.7812C346.546 32.8333 344.228 32.9375 341.91 33.0938V35.7109C341.91 36.1016 341.897 36.5052 341.871 36.9219C341.845 37.3125 341.793 37.7161 341.715 38.1328C343.928 38.1068 346.246 38.0417 348.668 37.9375C351.09 37.8594 353.408 37.7422 355.621 37.5859V36.9219ZM395.27 8.44531C395.27 7.5599 394.866 6.85677 394.059 6.33594C393.277 5.78906 392.053 5.32031 390.387 4.92969L390.855 3.875C392.158 4.03125 393.473 4.23958 394.801 4.5C396.129 4.73438 397.301 4.95573 398.316 5.16406C398.212 5.63281 398.121 6.16667 398.043 6.76562C397.965 7.36458 397.926 7.92448 397.926 8.44531V30.3203C397.926 31.1276 397.9 32.0521 397.848 33.0938C397.822 34.1354 397.783 35.1771 397.73 36.2188C397.678 37.2604 397.6 38.25 397.496 39.1875C397.418 40.125 397.327 40.8932 397.223 41.4922L395.582 41.6875C395.53 41.2448 395.478 40.6849 395.426 40.0078C395.4 39.3568 395.374 38.6406 395.348 37.8594C395.322 37.1042 395.296 36.3229 395.27 35.5156C395.27 34.7083 395.27 33.9271 395.27 33.1719V24.5391C394.124 25.0339 392.757 25.5417 391.168 26.0625C389.579 26.5573 387.939 27.0391 386.246 27.5078C384.553 27.9505 382.874 28.3542 381.207 28.7188C379.566 29.0833 378.108 29.3568 376.832 29.5391C375.66 29.6953 374.827 29.5521 374.332 29.1094C373.837 28.6406 373.59 27.8073 373.59 26.6094V14.6562C373.59 14.2135 373.538 13.8359 373.434 13.5234C373.329 13.2109 373.134 12.9505 372.848 12.7422C372.561 12.5078 372.158 12.3125 371.637 12.1562C371.116 12 370.439 11.8438 369.605 11.6875L369.996 10.6328C371.324 10.6849 372.509 10.776 373.551 10.9062C374.592 11.0365 375.621 11.1927 376.637 11.375C376.533 11.8438 376.441 12.3776 376.363 12.9766C376.285 13.5755 376.246 14.1354 376.246 14.6562V25.7891C376.246 26.3099 376.389 26.6745 376.676 26.8828C376.962 27.0651 377.327 27.1432 377.77 27.1172C378.811 27.0391 380.087 26.8828 381.598 26.6484C383.134 26.4141 384.71 26.1276 386.324 25.7891C387.965 25.4245 389.566 25.0339 391.129 24.6172C392.717 24.1745 394.098 23.7448 395.27 23.3281V8.44531ZM431.52 8.44531C431.52 7.5599 431.116 6.85677 430.309 6.33594C429.527 5.78906 428.303 5.32031 426.637 4.92969L427.105 3.875C428.408 4.03125 429.723 4.23958 431.051 4.5C432.379 4.73438 433.551 4.95573 434.566 5.16406C434.462 5.63281 434.371 6.16667 434.293 6.76562C434.215 7.36458 434.176 7.92448 434.176 8.44531V19.7344C435.243 19.6823 436.48 19.5911 437.887 19.4609C439.293 19.3307 440.699 19.1354 442.105 18.875L441.715 21.375C441.168 21.349 440.556 21.3359 439.879 21.3359C439.228 21.3359 438.564 21.3359 437.887 21.3359C437.21 21.3359 436.546 21.349 435.895 21.375C435.243 21.375 434.671 21.375 434.176 21.375V30.3203C434.176 31.1276 434.15 32.0521 434.098 33.0938C434.072 34.1354 434.033 35.1771 433.98 36.2188C433.928 37.2604 433.85 38.25 433.746 39.1875C433.668 40.125 433.577 40.8932 433.473 41.4922L431.832 41.6875C431.78 41.2448 431.728 40.6849 431.676 40.0078C431.65 39.3568 431.624 38.6406 431.598 37.8594C431.572 37.1042 431.546 36.3229 431.52 35.5156C431.52 34.7083 431.52 33.9271 431.52 33.1719V25.2422C430.348 25.7109 428.98 26.2057 427.418 26.7266C425.855 27.2214 424.241 27.7031 422.574 28.1719C420.934 28.6146 419.293 29.0182 417.652 29.3828C416.038 29.7474 414.592 30.0208 413.316 30.2031C412.145 30.3594 411.311 30.2161 410.816 29.7734C410.322 29.3307 410.074 28.4974 410.074 27.2734V15.8672C410.074 15.3464 410.035 14.9036 409.957 14.5391C409.879 14.1745 409.71 13.862 409.449 13.6016C409.215 13.3411 408.863 13.1068 408.395 12.8984C407.952 12.6901 407.366 12.4818 406.637 12.2734L407.105 11.2969C408.512 11.5052 410.009 11.6484 411.598 11.7266C413.186 11.7786 414.788 11.7786 416.402 11.7266C418.017 11.6484 419.592 11.5312 421.129 11.375C422.691 11.2188 424.15 11.0234 425.504 10.7891L424.996 13.1328C422.522 13.0286 420.243 13.0156 418.16 13.0938C416.103 13.1719 414.293 13.276 412.73 13.4062V26.4922C412.73 27.013 412.874 27.3776 413.16 27.5859C413.447 27.7682 413.811 27.8333 414.254 27.7812C415.296 27.7031 416.559 27.5469 418.043 27.3125C419.553 27.0781 421.103 26.7917 422.691 26.4531C424.306 26.0885 425.882 25.6979 427.418 25.2812C428.98 24.8646 430.348 24.4349 431.52 23.9922V8.44531Z" fill="white"/>
</svg>
