<svg width="1372" height="719" viewBox="0 0 1372 719" fill="none" xmlns="http://www.w3.org/2000/svg">
<rect width="1372" height="719" rx="20" fill="#F8F8F8"/>
<path d="M606.806 129.04C605.526 129.08 604.506 128.76 603.746 128.08C602.986 127.44 602.606 126.34 602.606 124.78L602.546 116.08C602.546 115.56 602.726 115.12 603.086 114.76C603.446 114.36 603.886 114.16 604.406 114.16C604.966 114.16 605.426 114.36 605.786 114.76C606.146 115.12 606.326 115.56 606.326 116.08C606.326 116.6 606.326 117.26 606.326 118.06C606.366 118.82 606.386 119.66 606.386 120.58C606.386 121.46 606.386 122.34 606.386 123.22C606.386 124.1 606.386 124.88 606.386 125.56C607.866 125.56 609.406 125.52 611.006 125.44C612.606 125.4 614.186 125.34 615.746 125.26C617.346 125.18 618.846 125.1 620.246 125.02C621.686 124.94 622.966 124.86 624.086 124.78C624.526 124.74 624.906 124.9 625.226 125.26C625.546 125.66 625.706 126.08 625.706 126.52C625.706 127.04 625.506 127.44 625.106 127.72C624.746 128.04 624.346 128.22 623.906 128.26C622.746 128.34 621.446 128.42 620.006 128.5C618.606 128.58 617.146 128.66 615.626 128.74C614.146 128.82 612.646 128.88 611.126 128.92C609.646 129 608.206 129.04 606.806 129.04ZM602.186 109.96C601.346 109.96 600.506 109.82 599.666 109.54C598.826 109.26 598.066 108.84 597.386 108.28C596.746 107.72 596.226 107.04 595.826 106.24C595.426 105.44 595.206 104.54 595.166 103.54C595.126 102.3 595.306 101.16 595.706 100.12C596.146 99.08 596.746 98.2 597.506 97.48C597.746 97.24 597.986 97.08 598.226 97C598.906 96.44 599.706 96.02 600.626 95.74C601.546 95.46 602.446 95.32 603.326 95.32C604.326 95.32 605.266 95.46 606.146 95.74C607.066 96.02 607.846 96.44 608.486 97C609.166 97.52 609.686 98.18 610.046 98.98C610.446 99.74 610.646 100.6 610.646 101.56C610.646 102.64 610.406 103.68 609.926 104.68C609.486 105.68 608.886 106.58 608.126 107.38C607.366 108.14 606.466 108.76 605.426 109.24C604.426 109.72 603.346 109.96 602.186 109.96ZM602.186 106.48C602.786 106.48 603.366 106.34 603.926 106.06C604.486 105.78 604.986 105.42 605.426 104.98C605.866 104.5 606.226 103.96 606.506 103.36C606.786 102.76 606.926 102.16 606.926 101.56C606.926 100.6 606.586 99.9 605.906 99.46C605.226 99.02 604.366 98.8 603.326 98.8C602.206 98.8 601.246 99.14 600.446 99.82C600.326 100.06 600.086 100.24 599.726 100.36C599.486 100.68 599.266 101.1 599.066 101.62C598.906 102.14 598.846 102.74 598.886 103.42C598.926 104.42 599.286 105.18 599.966 105.7C600.646 106.22 601.386 106.48 602.186 106.48ZM593.126 92.98C592.686 93.06 592.266 92.92 591.866 92.56C591.466 92.16 591.266 91.72 591.266 91.24C591.266 90.8 591.426 90.42 591.746 90.1C592.066 89.78 592.446 89.58 592.886 89.5C594.246 89.38 595.706 89.26 597.266 89.14C598.826 88.98 600.386 88.82 601.946 88.66C603.546 88.46 605.126 88.28 606.686 88.12C608.246 87.92 609.726 87.72 611.126 87.52C611.686 87.44 612.146 87.58 612.506 87.94C612.906 88.3 613.106 88.72 613.106 89.2C613.106 89.64 612.966 90.02 612.686 90.34C612.446 90.66 612.106 90.86 611.666 90.94C610.226 91.14 608.706 91.34 607.106 91.54C605.546 91.7 603.946 91.88 602.306 92.08C600.706 92.24 599.126 92.4 597.566 92.56C596.006 92.72 594.526 92.86 593.126 92.98ZM598.526 85.72C598.046 85.8 597.606 85.68 597.206 85.36C596.806 85 596.606 84.58 596.606 84.1C596.606 83.62 596.746 83.22 597.026 82.9C597.346 82.58 597.726 82.4 598.166 82.36C599.446 82.2 600.926 82.02 602.606 81.82C604.286 81.62 605.886 81.42 607.406 81.22C607.966 81.14 608.426 81.28 608.786 81.64C609.186 81.96 609.386 82.4 609.386 82.96C609.386 83.4 609.246 83.78 608.966 84.1C608.686 84.42 608.326 84.62 607.886 84.7C606.486 84.9 604.906 85.1 603.146 85.3C601.426 85.46 599.886 85.6 598.526 85.72ZM623.726 113.74C623.206 113.74 622.766 113.56 622.406 113.2C622.046 112.84 621.866 112.4 621.866 111.88C621.906 109.92 621.966 107.74 622.046 105.34C622.166 102.94 622.306 100.48 622.466 97.96C622.626 95.44 622.826 92.96 623.066 90.52C623.306 88.04 623.586 85.76 623.906 83.68C623.986 83.24 624.186 82.88 624.506 82.6C624.866 82.28 625.266 82.12 625.706 82.12C626.306 82.12 626.786 82.36 627.146 82.84C627.546 83.28 627.706 83.78 627.626 84.34C627.306 86.34 627.026 88.54 626.786 90.94C626.546 93.3 626.346 95.72 626.186 98.2C626.026 100.64 625.886 103.04 625.766 105.4C625.686 107.76 625.626 109.92 625.586 111.88C625.586 112.4 625.406 112.84 625.046 113.2C624.726 113.56 624.286 113.74 623.726 113.74ZM648.431 110.8C647.311 110.8 646.351 110.56 645.551 110.08C644.791 109.56 644.451 108.7 644.531 107.5L645.131 92.56L643.271 92.74C642.711 92.82 642.251 92.68 641.891 92.32C641.531 91.96 641.351 91.52 641.351 91C641.351 90.56 641.491 90.18 641.771 89.86C642.091 89.5 642.471 89.3 642.911 89.26C643.951 89.18 645.331 89.08 647.051 88.96C648.771 88.8 650.571 88.66 652.451 88.54C654.331 88.38 656.131 88.24 657.851 88.12C659.611 88 661.031 87.88 662.111 87.76C662.591 87.68 663.031 87.82 663.431 88.18C663.831 88.54 664.031 88.98 664.031 89.5C664.031 89.94 663.871 90.32 663.551 90.64C663.231 90.96 662.871 91.16 662.471 91.24C661.751 91.32 660.851 91.4 659.771 91.48C658.731 91.56 657.591 91.66 656.351 91.78C655.151 91.86 653.891 91.96 652.571 92.08C651.291 92.16 650.051 92.24 648.851 92.32L648.611 98.44C649.531 98.4 650.631 98.36 651.911 98.32C653.191 98.24 654.471 98.18 655.751 98.14C657.071 98.06 658.311 97.98 659.471 97.9C660.671 97.82 661.631 97.76 662.351 97.72C662.831 97.72 663.251 97.9 663.611 98.26C663.971 98.62 664.151 99.02 664.151 99.46C664.151 99.98 663.971 100.42 663.611 100.78C663.291 101.1 662.911 101.26 662.471 101.26L648.491 101.92L648.251 107.56C649.011 107.56 650.071 107.52 651.431 107.44C652.791 107.32 654.211 107.22 655.691 107.14C657.171 107.02 658.571 106.92 659.891 106.84C661.211 106.76 662.191 106.72 662.831 106.72C663.151 106.64 663.471 106.68 663.791 106.84C664.151 107 664.431 107.24 664.631 107.56C664.831 108 664.831 108.46 664.631 108.94C664.431 109.42 664.091 109.72 663.611 109.84C662.891 109.84 661.791 109.9 660.311 110.02C658.871 110.1 657.351 110.2 655.751 110.32C654.191 110.44 652.711 110.56 651.311 110.68C649.951 110.76 648.991 110.8 648.431 110.8ZM637.031 124.78C636.551 124.86 636.111 124.72 635.711 124.36C635.311 124.04 635.111 123.6 635.111 123.04C635.111 122.6 635.271 122.22 635.591 121.9C635.911 121.58 636.291 121.4 636.731 121.36C642.091 120.92 647.731 120.54 653.651 120.22C659.611 119.9 665.611 119.7 671.651 119.62C672.091 119.62 672.491 119.78 672.851 120.1C673.211 120.42 673.391 120.84 673.391 121.36C673.391 121.8 673.211 122.2 672.851 122.56C672.531 122.88 672.131 123.04 671.651 123.04C665.691 123.12 659.771 123.32 653.891 123.64C648.051 123.96 642.431 124.34 637.031 124.78ZM725.855 113.14C725.335 113.14 724.895 112.96 724.535 112.6C724.175 112.2 723.995 111.76 723.995 111.28C724.035 109.24 724.095 107 724.175 104.56C724.295 102.08 724.455 99.54 724.655 96.94L715.055 98.02C714.575 98.1 714.115 97.98 713.675 97.66C713.275 97.3 713.075 96.84 713.075 96.28C713.075 95.84 713.215 95.46 713.495 95.14C713.815 94.82 714.175 94.62 714.575 94.54L724.895 93.34C725.055 91.58 725.215 89.9 725.375 88.3C725.575 86.66 725.775 85.12 725.975 83.68C726.095 83.24 726.315 82.88 726.635 82.6C726.995 82.28 727.395 82.12 727.835 82.12C728.435 82.12 728.915 82.36 729.275 82.84C729.675 83.28 729.835 83.78 729.755 84.34C729.435 86.3 729.155 88.44 728.915 90.76C728.675 93.08 728.475 95.44 728.315 97.84C728.155 100.24 728.015 102.6 727.895 104.92C727.815 107.24 727.755 109.36 727.715 111.28C727.715 111.76 727.535 112.2 727.175 112.6C726.855 112.96 726.415 113.14 725.855 113.14ZM711.395 129.04C710.155 129.04 709.155 128.72 708.395 128.08C707.635 127.44 707.255 126.34 707.255 124.78L707.195 115.42C707.195 114.94 707.355 114.52 707.675 114.16C708.035 113.76 708.495 113.56 709.055 113.56C709.575 113.56 710.015 113.76 710.375 114.16C710.735 114.52 710.915 114.94 710.915 115.42C710.915 115.94 710.915 116.64 710.915 117.52C710.955 118.36 710.975 119.26 710.975 120.22C710.975 121.18 710.975 122.14 710.975 123.1C710.975 124.02 710.975 124.84 710.975 125.56C712.335 125.56 713.755 125.52 715.235 125.44C716.715 125.4 718.175 125.34 719.615 125.26C721.055 125.22 722.435 125.14 723.755 125.02C725.115 124.94 726.335 124.86 727.415 124.78C727.895 124.74 728.295 124.9 728.615 125.26C728.935 125.66 729.095 126.08 729.095 126.52C729.095 127.04 728.895 127.44 728.495 127.72C728.135 128.04 727.735 128.22 727.295 128.26C724.935 128.46 722.355 128.62 719.555 128.74C716.755 128.9 714.035 129 711.395 129.04ZM695.855 105.88C695.455 106.32 694.995 106.52 694.475 106.48C693.955 106.4 693.575 106.18 693.335 105.82C693.095 105.54 692.955 105.16 692.915 104.68C692.915 104.2 693.075 103.76 693.395 103.36C694.315 102.48 695.355 101.44 696.515 100.24C697.675 99.04 698.875 97.76 700.115 96.4C701.355 95.04 702.535 93.66 703.655 92.26C704.815 90.86 705.815 89.5 706.655 88.18C706.935 87.62 707.355 87.32 707.915 87.28C708.475 87.2 708.935 87.32 709.295 87.64C709.655 87.84 709.895 88.18 710.015 88.66C710.135 89.1 710.055 89.54 709.775 89.98C709.255 90.78 708.655 91.64 707.975 92.56C707.335 93.44 706.615 94.34 705.815 95.26C706.815 96.42 707.715 97.7 708.515 99.1C709.315 100.46 710.195 101.82 711.155 103.18C711.355 103.62 711.395 104.06 711.275 104.5C711.155 104.94 710.875 105.32 710.435 105.64C709.955 105.96 709.435 106.02 708.875 105.82C708.315 105.62 707.935 105.26 707.735 104.74C706.855 103.58 706.075 102.44 705.395 101.32C704.715 100.2 704.035 99.12 703.355 98.08C702.035 99.56 700.715 101 699.395 102.4C698.075 103.76 696.895 104.92 695.855 105.88ZM744.274 109.06C743.114 109.26 742.154 109.08 741.394 108.52C740.634 107.92 740.294 107.02 740.374 105.82L740.974 90.22L739.114 90.4C738.554 90.48 738.094 90.36 737.734 90.04C737.374 89.68 737.194 89.22 737.194 88.66C737.194 88.22 737.334 87.84 737.614 87.52C737.934 87.2 738.314 87 738.754 86.92C739.754 86.8 740.934 86.68 742.294 86.56C743.654 86.44 745.054 86.32 746.494 86.2C747.934 86.04 749.354 85.9 750.754 85.78C752.154 85.62 753.354 85.48 754.354 85.36C754.914 85.28 755.394 85.42 755.794 85.78C756.194 86.14 756.394 86.58 756.394 87.1C756.394 87.54 756.234 87.92 755.914 88.24C755.634 88.56 755.294 88.76 754.894 88.84C753.574 89 751.994 89.18 750.154 89.38C748.314 89.54 746.494 89.7 744.694 89.86L744.454 96.34L754.594 95.44C755.114 95.36 755.554 95.5 755.914 95.86C756.314 96.18 756.514 96.6 756.514 97.12C756.514 97.56 756.354 97.96 756.034 98.32C755.714 98.64 755.354 98.82 754.954 98.86C754.274 98.94 753.474 99.02 752.554 99.1C751.634 99.18 750.694 99.26 749.734 99.34C748.774 99.42 747.814 99.5 746.854 99.58C745.894 99.66 745.054 99.72 744.334 99.76L744.094 105.76C744.814 105.72 745.714 105.66 746.794 105.58C747.874 105.46 748.994 105.36 750.154 105.28C751.354 105.16 752.494 105.04 753.574 104.92C754.694 104.8 755.634 104.72 756.394 104.68C756.794 104.6 757.174 104.66 757.534 104.86C757.934 105.06 758.194 105.38 758.314 105.82C758.474 106.26 758.434 106.7 758.194 107.14C757.954 107.54 757.594 107.8 757.114 107.92C756.314 107.96 755.314 108.06 754.114 108.22C752.914 108.34 751.674 108.46 750.394 108.58C749.154 108.7 747.974 108.82 746.854 108.94C745.734 109.02 744.874 109.06 744.274 109.06ZM773.674 128.68C773.154 128.68 772.694 128.46 772.294 128.02C771.934 127.62 771.774 127.18 771.814 126.7L772.594 115.9C771.274 116.02 769.714 116.18 767.914 116.38C766.154 116.54 764.354 116.7 762.514 116.86C760.714 116.98 758.994 117.1 757.354 117.22C755.754 117.34 754.454 117.44 753.454 117.52C752.934 117.56 752.494 117.42 752.134 117.1C751.814 116.78 751.654 116.36 751.654 115.84C751.654 115.4 751.814 115 752.134 114.64C752.454 114.28 752.854 114.1 753.334 114.1L771.814 112.54C773.214 112.38 774.334 112.64 775.174 113.32C776.014 113.96 776.374 115.12 776.254 116.8C776.214 117.48 776.174 118.26 776.134 119.14C776.094 119.98 776.034 120.86 775.954 121.78C775.914 122.66 775.854 123.54 775.774 124.42C775.694 125.34 775.614 126.18 775.534 126.94C775.494 127.38 775.294 127.78 774.934 128.14C774.614 128.5 774.194 128.68 773.674 128.68ZM774.394 109.3C773.834 109.3 773.374 109.12 773.014 108.76C772.694 108.36 772.534 107.92 772.534 107.44C772.574 106.36 772.634 104.82 772.714 102.82C772.794 100.78 772.914 98.58 773.074 96.22L765.694 97.42C765.574 99.1 765.474 100.7 765.394 102.22C765.314 103.74 765.274 105.1 765.274 106.3C765.274 106.86 765.094 107.32 764.734 107.68C764.374 108 763.934 108.16 763.414 108.16C762.854 108.16 762.394 108 762.034 107.68C761.674 107.32 761.494 106.86 761.494 106.3C761.534 104.94 761.594 103.42 761.674 101.74C761.754 100.06 761.854 98.34 761.974 96.58C762.134 94.82 762.294 93.08 762.454 91.36C762.614 89.6 762.774 88 762.934 86.56C763.014 86.04 763.214 85.64 763.534 85.36C763.894 85.04 764.314 84.88 764.794 84.88C765.354 84.88 765.814 85.1 766.174 85.54C766.574 85.94 766.734 86.42 766.654 86.98C766.534 88.02 766.414 89.14 766.294 90.34C766.174 91.5 766.074 92.66 765.994 93.82L773.314 92.56C773.434 90.92 773.554 89.36 773.674 87.88C773.794 86.36 773.934 85 774.094 83.8C774.174 83.36 774.374 82.98 774.694 82.66C775.054 82.3 775.474 82.12 775.954 82.12C776.514 82.12 776.974 82.34 777.334 82.78C777.734 83.22 777.894 83.7 777.814 84.22C777.614 85.94 777.414 87.92 777.214 90.16C777.054 92.4 776.894 94.62 776.734 96.82C776.614 99.02 776.514 101.08 776.434 103C776.354 104.88 776.294 106.36 776.254 107.44C776.254 107.92 776.074 108.36 775.714 108.76C775.354 109.12 774.914 109.3 774.394 109.3Z" fill="#222222"/>
</svg>
